<?xml version="1.0" encoding="UTF-8" standalone="no"?>
<svg
   xmlns:dc="http://purl.org/dc/elements/1.1/"
   xmlns:cc="http://creativecommons.org/ns#"
   xmlns:rdf="http://www.w3.org/1999/02/22-rdf-syntax-ns#"
   xmlns:svg="http://www.w3.org/2000/svg"
   xmlns="http://www.w3.org/2000/svg"
   xmlns:xlink="http://www.w3.org/1999/xlink"
   xmlns:sodipodi="http://sodipodi.sourceforge.net/DTD/sodipodi-0.dtd"
   xmlns:inkscape="http://www.inkscape.org/namespaces/inkscape"
   width="235"
   height="110"
   id="svg2"
   version="1.1"
   inkscape:version="1.0 (1.0+r73)"
   sodipodi:docname="zero-lliurex-itaca.svg">
  <defs
     id="defs4">
    <linearGradient
       inkscape:collect="always"
       id="linearGradient4238">
      <stop
         style="stop-color:#36005f;stop-opacity:1;"
         offset="0"
         id="stop4240" />
      <stop
         style="stop-color:#36005f;stop-opacity:0;"
         offset="1"
         id="stop4242" />
    </linearGradient>
    <radialGradient
       inkscape:collect="always"
       xlink:href="#linearGradient4238"
       id="radialGradient4244"
       cx="73.254005"
       cy="989.40417"
       fx="73.254005"
       fy="989.40417"
       r="65.339745"
       gradientTransform="matrix(1,0,0,0.37731528,0,616.08686)"
       gradientUnits="userSpaceOnUse" />
    <linearGradient
       y2="833.85461"
       x2="230.01286"
       y1="768.0376"
       x1="296.1369"
       gradientTransform="matrix(0.93939733,0,0,1.2111787,0,298.66667)"
       gradientUnits="userSpaceOnUse"
       id="G0">
      <stop
         id="stop4611"
         style="stop-color:#4dad2c" />
      <stop
         id="stop4613"
         style="stop-color:#e3ff86"
         offset="1" />
    </linearGradient>
    <linearGradient
       y2="408.78055"
       x2="504.90137"
       y1="408.78055"
       x1="433.22763"
       gradientTransform="matrix(0.448461,0,0,2.229848,0,280)"
       gradientUnits="userSpaceOnUse"
       id="G1">
      <stop
         id="stop4616"
         style="stop-color:#fff" />
      <stop
         id="stop4618"
         style="stop-color:#fff;stop-opacity:0"
         offset="1" />
    </linearGradient>
    <linearGradient
       y2="1719.0306"
       x2="116.15244"
       y1="1726.7207"
       x1="121.73791"
       gradientTransform="matrix(1.958518,0,0,0.51059,0,280)"
       gradientUnits="userSpaceOnUse"
       id="G2">
      <stop
         id="stop4621"
         style="stop-color:#d9d9b4" />
      <stop
         id="stop4623"
         style="stop-color:#a3a36b"
         offset="1" />
    </linearGradient>
    <linearGradient
       y2="1051.3652"
       x2="243.66159"
       y1="998.6955"
       x1="241.40817"
       gradientTransform="matrix(0.991342,0,0,1.008734,0,140)"
       xlink:href="#G1"
       id="G3" />
    <linearGradient
       y2="776.55743"
       x2="286.71185"
       y1="794.37476"
       x1="277.49091"
       gradientTransform="matrix(0.747426,0,0,1.337925,0.25,132)"
       xlink:href="#G3"
       id="G4">
      <stop
         id="stop4627"
         style="stop-color:#ff0b00" />
      <stop
         id="stop4629"
         style="stop-color:#810500"
         offset="1" />
    </linearGradient>
    <linearGradient
       y2="885.64746"
       x2="252.10155"
       y1="868.11609"
       x1="250.28658"
       gradientTransform="matrix(0.88966187,0,0,1.2788885,0,140.8)"
       xlink:href="#G1"
       id="G5" />
    <linearGradient
       y2="1976.4353"
       x2="115.16805"
       y1="1985.5347"
       x1="126.13629"
       gradientTransform="matrix(1.937868,0,0,0.516031,0,140)"
       xlink:href="#G1"
       id="G6" />
    <radialGradient
       r="44.525272"
       fy="1794.8795"
       fx="169.88104"
       cy="1794.8795"
       cx="169.88104"
       gradientTransform="scale(1.459845,0.685004)"
       gradientUnits="userSpaceOnUse"
       id="G7">
      <stop
         id="stop4634"
         style="stop-color:#000;stop-opacity:.39215687" />
      <stop
         id="stop4636"
         style="stop-color:#000;stop-opacity:0"
         offset="1" />
    </radialGradient>
    <linearGradient
       y2="1082.9424"
       x2="211.85287"
       y1="1137.6046"
       x1="205.99301"
       gradientTransform="matrix(1.2543595,0,0,0.9070592,0,298.66667)"
       gradientUnits="userSpaceOnUse"
       spreadMethod="reflect"
       id="G9">
      <stop
         id="stop4639"
         style="stop-color:#b6e8ff" />
      <stop
         id="stop4641"
         style="stop-color:#2389db"
         offset="1" />
    </linearGradient>
    <linearGradient
       y2="1448.4674"
       x2="189.13556"
       y1="1448.4674"
       x1="131.91928"
       gradientTransform="matrix(1.514725,0,0,0.660186,0,280)"
       xlink:href="#G2"
       id="G10" />
    <linearGradient
       y2="1776.3087"
       x2="164.79172"
       y1="1700.754"
       x1="143.15617"
       gradientTransform="matrix(1.7227083,0,0,0.66045867,0,149.33333)"
       xlink:href="#G1"
       id="G11" />
    <linearGradient
       y2="1444.9415"
       x2="191.07132"
       y1="1478.1887"
       x1="191.07132"
       gradientTransform="matrix(1.4530443,0,0,0.7830304,0,149.33333)"
       xlink:href="#G4"
       id="G12" />
    <linearGradient
       y2="1634.5474"
       x2="157.33363"
       y1="1696.1609"
       x1="140.25737"
       gradientTransform="matrix(1.514725,0,0,0.660186,0,140)"
       xlink:href="#G2"
       id="G13" />
    <linearGradient
       y2="1666.985"
       x2="167.51932"
       y1="1674.547"
       x1="175.50798"
       gradientTransform="matrix(1.514725,0,0,0.660186,0,140)"
       spreadMethod="pad"
       xlink:href="#G1"
       id="G14" />
    <linearGradient
       y2="1669.3435"
       x2="147.68718"
       y1="1674.4733"
       x1="140.18318"
       gradientTransform="matrix(1.6157067,0,0,0.7041984,0,149.33333)"
       xlink:href="#G1"
       id="G15" />
    <linearGradient
       y2="985.21222"
       x2="227.17216"
       y1="1010.1295"
       x1="222.24202"
       gradientTransform="matrix(0.9677664,0,0,1.1756747,0,149.33333)"
       xlink:href="#G4"
       id="G16" />
    <linearGradient
       y2="1068.4087"
       x2="212.00743"
       y1="1048.0908"
       x1="211.96373"
       gradientTransform="matrix(1.0294891,0,0,1.1051872,0,149.33333)"
       xlink:href="#G1"
       id="G17" />
    <linearGradient
       y2="1493.8745"
       x2="182.96735"
       y1="1437.2679"
       x1="196.64761"
       gradientTransform="matrix(1.4530443,0,0,0.7830304,0,149.33333)"
       xlink:href="#G1"
       id="G18" />
    <linearGradient
       id="SVGID_1_"
       gradientUnits="userSpaceOnUse"
       x1="30.2495"
       y1="49"
       x2="30.2495"
       y2="12.8745"
       gradientTransform="scale(1.0666667)">
      <stop
         offset="0"
         style="stop-color:#000000"
         id="stop5847" />
      <stop
         offset="1"
         style="stop-color:#3B3B3B"
         id="stop5849" />
    </linearGradient>
    <linearGradient
       id="SVGID_2_"
       gradientUnits="userSpaceOnUse"
       x1="59.722198"
       y1="20.466801"
       x2="59.722198"
       y2="12.583"
       gradientTransform="scale(1.0666667)">
      <stop
         offset="0"
         style="stop-color:#000000"
         id="stop5854" />
      <stop
         offset="1"
         style="stop-color:#3B3B3B"
         id="stop5856" />
    </linearGradient>
    <linearGradient
       id="SVGID_2_-8"
       gradientUnits="userSpaceOnUse"
       x1="10.0947"
       y1="29"
       x2="57"
       y2="29">
      <stop
         offset="0"
         style="stop-color:#535353"
         id="stop82904" />
      <stop
         offset="0.2675"
         style="stop-color:#595959"
         id="stop82906" />
      <stop
         offset="0.5963"
         style="stop-color:#686868"
         id="stop82908" />
      <stop
         offset="0.9559"
         style="stop-color:#808080"
         id="stop82910" />
      <stop
         offset="1"
         style="stop-color:#848484"
         id="stop82912" />
    </linearGradient>
    <linearGradient
       id="SVGID_3_"
       gradientUnits="userSpaceOnUse"
       x1="13.5"
       y1="29.5"
       x2="56.5"
       y2="29.5">
      <stop
         offset="0"
         style="stop-color:#D1D1D1"
         id="stop82919" />
      <stop
         offset="0.0079"
         style="stop-color:#D2D2D2"
         id="stop82921" />
      <stop
         offset="0.303"
         style="stop-color:#EBEBEB"
         id="stop82923" />
      <stop
         offset="0.5728"
         style="stop-color:#FAFAFA"
         id="stop82925" />
      <stop
         offset="0.7923"
         style="stop-color:#FFFFFF"
         id="stop82927" />
      <stop
         offset="0.8536"
         style="stop-color:#FBFBFB"
         id="stop82929" />
      <stop
         offset="0.913"
         style="stop-color:#EFEFEF"
         id="stop82931" />
      <stop
         offset="0.9714"
         style="stop-color:#DCDCDC"
         id="stop82933" />
      <stop
         offset="1"
         style="stop-color:#D0D0D0"
         id="stop82935" />
    </linearGradient>
    <linearGradient
       id="SVGID_4_"
       gradientUnits="userSpaceOnUse"
       x1="13"
       y1="29.5"
       x2="57"
       y2="29.5">
      <stop
         offset="0"
         style="stop-color:#E5E2DF"
         id="stop82938" />
      <stop
         offset="0"
         style="stop-color:#DED9D6"
         id="stop82940" />
      <stop
         offset="0.063"
         style="stop-color:#CFCAC9"
         id="stop82942" />
      <stop
         offset="0.1833"
         style="stop-color:#A8A4A7"
         id="stop82944" />
      <stop
         offset="0.264"
         style="stop-color:#8B878D"
         id="stop82946" />
      <stop
         offset="0.5225"
         style="stop-color:#F3F4F4"
         id="stop82948" />
      <stop
         offset="0.5842"
         style="stop-color:#E5E5E6"
         id="stop82950" />
      <stop
         offset="0.7027"
         style="stop-color:#C0BEC0"
         id="stop82952" />
      <stop
         offset="0.8647"
         style="stop-color:#858085"
         id="stop82954" />
      <stop
         offset="0.8764"
         style="stop-color:#807B80"
         id="stop82956" />
      <stop
         offset="1"
         style="stop-color:#D1D3D4"
         id="stop82958" />
      <stop
         offset="1"
         style="stop-color:#A7A9AC"
         id="stop82960" />
    </linearGradient>
    <linearGradient
       id="SVGID_5_"
       gradientUnits="userSpaceOnUse"
       x1="13.5"
       y1="30"
       x2="55.5"
       y2="30">
      <stop
         offset="0"
         style="stop-color:#D1D1D1"
         id="stop82965" />
      <stop
         offset="0.0079"
         style="stop-color:#D2D2D2"
         id="stop82967" />
      <stop
         offset="0.303"
         style="stop-color:#EBEBEB"
         id="stop82969" />
      <stop
         offset="0.5728"
         style="stop-color:#FAFAFA"
         id="stop82971" />
      <stop
         offset="0.7923"
         style="stop-color:#FFFFFF"
         id="stop82973" />
      <stop
         offset="0.8536"
         style="stop-color:#FBFBFB"
         id="stop82975" />
      <stop
         offset="0.913"
         style="stop-color:#EFEFEF"
         id="stop82977" />
      <stop
         offset="0.9714"
         style="stop-color:#DCDCDC"
         id="stop82979" />
      <stop
         offset="1"
         style="stop-color:#D0D0D0"
         id="stop82981" />
    </linearGradient>
    <linearGradient
       id="SVGID_6_"
       gradientUnits="userSpaceOnUse"
       x1="13"
       y1="30"
       x2="56"
       y2="30">
      <stop
         offset="0"
         style="stop-color:#E5E2DF"
         id="stop82984" />
      <stop
         offset="0"
         style="stop-color:#DED9D6"
         id="stop82986" />
      <stop
         offset="0.063"
         style="stop-color:#CFCAC9"
         id="stop82988" />
      <stop
         offset="0.1833"
         style="stop-color:#A8A4A7"
         id="stop82990" />
      <stop
         offset="0.264"
         style="stop-color:#8B878D"
         id="stop82992" />
      <stop
         offset="0.5225"
         style="stop-color:#F3F4F4"
         id="stop82994" />
      <stop
         offset="0.5842"
         style="stop-color:#E5E5E6"
         id="stop82996" />
      <stop
         offset="0.7027"
         style="stop-color:#C0BEC0"
         id="stop82998" />
      <stop
         offset="0.8647"
         style="stop-color:#858085"
         id="stop83000" />
      <stop
         offset="0.8764"
         style="stop-color:#807B80"
         id="stop83002" />
      <stop
         offset="1"
         style="stop-color:#D1D3D4"
         id="stop83004" />
      <stop
         offset="1"
         style="stop-color:#A7A9AC"
         id="stop83006" />
    </linearGradient>
    <linearGradient
       id="SVGID_7_"
       gradientUnits="userSpaceOnUse"
       x1="12.5"
       y1="31"
       x2="54.5"
       y2="31">
      <stop
         offset="0"
         style="stop-color:#D1D1D1"
         id="stop83011" />
      <stop
         offset="0.0079"
         style="stop-color:#D2D2D2"
         id="stop83013" />
      <stop
         offset="0.303"
         style="stop-color:#EBEBEB"
         id="stop83015" />
      <stop
         offset="0.5728"
         style="stop-color:#FAFAFA"
         id="stop83017" />
      <stop
         offset="0.7923"
         style="stop-color:#FFFFFF"
         id="stop83019" />
      <stop
         offset="0.8536"
         style="stop-color:#FBFBFB"
         id="stop83021" />
      <stop
         offset="0.913"
         style="stop-color:#EFEFEF"
         id="stop83023" />
      <stop
         offset="0.9714"
         style="stop-color:#DCDCDC"
         id="stop83025" />
      <stop
         offset="1"
         style="stop-color:#D0D0D0"
         id="stop83027" />
    </linearGradient>
    <linearGradient
       id="SVGID_8_"
       gradientUnits="userSpaceOnUse"
       x1="12"
       y1="31"
       x2="55"
       y2="31">
      <stop
         offset="0"
         style="stop-color:#E5E2DF"
         id="stop83030" />
      <stop
         offset="0"
         style="stop-color:#DED9D6"
         id="stop83032" />
      <stop
         offset="0.063"
         style="stop-color:#CFCAC9"
         id="stop83034" />
      <stop
         offset="0.1833"
         style="stop-color:#A8A4A7"
         id="stop83036" />
      <stop
         offset="0.264"
         style="stop-color:#8B878D"
         id="stop83038" />
      <stop
         offset="0.5225"
         style="stop-color:#F3F4F4"
         id="stop83040" />
      <stop
         offset="0.5842"
         style="stop-color:#E5E5E6"
         id="stop83042" />
      <stop
         offset="0.7027"
         style="stop-color:#C0BEC0"
         id="stop83044" />
      <stop
         offset="0.8647"
         style="stop-color:#858085"
         id="stop83046" />
      <stop
         offset="0.8764"
         style="stop-color:#807B80"
         id="stop83048" />
      <stop
         offset="1"
         style="stop-color:#D1D3D4"
         id="stop83050" />
      <stop
         offset="1"
         style="stop-color:#A7A9AC"
         id="stop83052" />
    </linearGradient>
    <linearGradient
       id="SVGID_9_"
       gradientUnits="userSpaceOnUse"
       x1="11.5"
       y1="31"
       x2="53.501499"
       y2="31">
      <stop
         offset="0"
         style="stop-color:#D1D1D1"
         id="stop83057" />
      <stop
         offset="0.0079"
         style="stop-color:#D2D2D2"
         id="stop83059" />
      <stop
         offset="0.303"
         style="stop-color:#EBEBEB"
         id="stop83061" />
      <stop
         offset="0.5728"
         style="stop-color:#FAFAFA"
         id="stop83063" />
      <stop
         offset="0.7923"
         style="stop-color:#FFFFFF"
         id="stop83065" />
      <stop
         offset="0.8536"
         style="stop-color:#FBFBFB"
         id="stop83067" />
      <stop
         offset="0.913"
         style="stop-color:#EFEFEF"
         id="stop83069" />
      <stop
         offset="0.9714"
         style="stop-color:#DCDCDC"
         id="stop83071" />
      <stop
         offset="1"
         style="stop-color:#D0D0D0"
         id="stop83073" />
    </linearGradient>
    <linearGradient
       id="SVGID_10_"
       gradientUnits="userSpaceOnUse"
       x1="11"
       y1="31"
       x2="54.001499"
       y2="31">
      <stop
         offset="0"
         style="stop-color:#E5E2DF"
         id="stop83076" />
      <stop
         offset="0"
         style="stop-color:#DED9D6"
         id="stop83078" />
      <stop
         offset="0.063"
         style="stop-color:#CFCAC9"
         id="stop83080" />
      <stop
         offset="0.1833"
         style="stop-color:#A8A4A7"
         id="stop83082" />
      <stop
         offset="0.264"
         style="stop-color:#8B878D"
         id="stop83084" />
      <stop
         offset="0.5225"
         style="stop-color:#F3F4F4"
         id="stop83086" />
      <stop
         offset="0.5842"
         style="stop-color:#E5E5E6"
         id="stop83088" />
      <stop
         offset="0.7027"
         style="stop-color:#C0BEC0"
         id="stop83090" />
      <stop
         offset="0.8647"
         style="stop-color:#858085"
         id="stop83092" />
      <stop
         offset="0.8764"
         style="stop-color:#807B80"
         id="stop83094" />
      <stop
         offset="1"
         style="stop-color:#D1D3D4"
         id="stop83096" />
      <stop
         offset="1"
         style="stop-color:#A7A9AC"
         id="stop83098" />
    </linearGradient>
    <linearGradient
       id="SVGID_11_"
       gradientUnits="userSpaceOnUse"
       x1="11.5"
       y1="32"
       x2="53.5"
       y2="32">
      <stop
         offset="0"
         style="stop-color:#D1D1D1"
         id="stop83103" />
      <stop
         offset="0.0079"
         style="stop-color:#D2D2D2"
         id="stop83105" />
      <stop
         offset="0.303"
         style="stop-color:#EBEBEB"
         id="stop83107" />
      <stop
         offset="0.5728"
         style="stop-color:#FAFAFA"
         id="stop83109" />
      <stop
         offset="0.7923"
         style="stop-color:#FFFFFF"
         id="stop83111" />
      <stop
         offset="0.8536"
         style="stop-color:#FBFBFB"
         id="stop83113" />
      <stop
         offset="0.913"
         style="stop-color:#EFEFEF"
         id="stop83115" />
      <stop
         offset="0.9714"
         style="stop-color:#DCDCDC"
         id="stop83117" />
      <stop
         offset="1"
         style="stop-color:#D0D0D0"
         id="stop83119" />
    </linearGradient>
    <linearGradient
       id="SVGID_12_"
       gradientUnits="userSpaceOnUse"
       x1="11"
       y1="32"
       x2="54"
       y2="32">
      <stop
         offset="0"
         style="stop-color:#E5E2DF"
         id="stop83122" />
      <stop
         offset="0"
         style="stop-color:#DED9D6"
         id="stop83124" />
      <stop
         offset="0.063"
         style="stop-color:#CFCAC9"
         id="stop83126" />
      <stop
         offset="0.1833"
         style="stop-color:#A8A4A7"
         id="stop83128" />
      <stop
         offset="0.264"
         style="stop-color:#8B878D"
         id="stop83130" />
      <stop
         offset="0.5225"
         style="stop-color:#F3F4F4"
         id="stop83132" />
      <stop
         offset="0.5842"
         style="stop-color:#E5E5E6"
         id="stop83134" />
      <stop
         offset="0.7027"
         style="stop-color:#C0BEC0"
         id="stop83136" />
      <stop
         offset="0.8647"
         style="stop-color:#858085"
         id="stop83138" />
      <stop
         offset="0.8764"
         style="stop-color:#807B80"
         id="stop83140" />
      <stop
         offset="1"
         style="stop-color:#D1D3D4"
         id="stop83142" />
      <stop
         offset="1"
         style="stop-color:#A7A9AC"
         id="stop83144" />
    </linearGradient>
    <linearGradient
       id="SVGID_13_"
       gradientUnits="userSpaceOnUse"
       x1="10.5"
       y1="32.5"
       x2="53.5"
       y2="32.5">
      <stop
         offset="0"
         style="stop-color:#D1D1D1"
         id="stop83149" />
      <stop
         offset="0.0079"
         style="stop-color:#D2D2D2"
         id="stop83151" />
      <stop
         offset="0.303"
         style="stop-color:#EBEBEB"
         id="stop83153" />
      <stop
         offset="0.5728"
         style="stop-color:#FAFAFA"
         id="stop83155" />
      <stop
         offset="0.7923"
         style="stop-color:#FFFFFF"
         id="stop83157" />
      <stop
         offset="0.8536"
         style="stop-color:#FBFBFB"
         id="stop83159" />
      <stop
         offset="0.913"
         style="stop-color:#EFEFEF"
         id="stop83161" />
      <stop
         offset="0.9714"
         style="stop-color:#DCDCDC"
         id="stop83163" />
      <stop
         offset="1"
         style="stop-color:#D0D0D0"
         id="stop83165" />
    </linearGradient>
    <linearGradient
       id="SVGID_14_"
       gradientUnits="userSpaceOnUse"
       x1="10"
       y1="32.5"
       x2="54"
       y2="32.5">
      <stop
         offset="0"
         style="stop-color:#E5E2DF"
         id="stop83168" />
      <stop
         offset="0"
         style="stop-color:#DED9D6"
         id="stop83170" />
      <stop
         offset="0.063"
         style="stop-color:#CFCAC9"
         id="stop83172" />
      <stop
         offset="0.1833"
         style="stop-color:#A8A4A7"
         id="stop83174" />
      <stop
         offset="0.264"
         style="stop-color:#8B878D"
         id="stop83176" />
      <stop
         offset="0.5225"
         style="stop-color:#F3F4F4"
         id="stop83178" />
      <stop
         offset="0.5842"
         style="stop-color:#E5E5E6"
         id="stop83180" />
      <stop
         offset="0.7027"
         style="stop-color:#C0BEC0"
         id="stop83182" />
      <stop
         offset="0.8647"
         style="stop-color:#858085"
         id="stop83184" />
      <stop
         offset="0.8764"
         style="stop-color:#807B80"
         id="stop83186" />
      <stop
         offset="1"
         style="stop-color:#D1D3D4"
         id="stop83188" />
      <stop
         offset="1"
         style="stop-color:#A7A9AC"
         id="stop83190" />
    </linearGradient>
    <linearGradient
       id="SVGID_15_"
       gradientUnits="userSpaceOnUse"
       x1="9"
       y1="33"
       x2="53"
       y2="33">
      <stop
         offset="0"
         style="stop-color:#D1D1D1"
         id="stop83195" />
      <stop
         offset="0.0079"
         style="stop-color:#D2D2D2"
         id="stop83197" />
      <stop
         offset="0.303"
         style="stop-color:#EBEBEB"
         id="stop83199" />
      <stop
         offset="0.5728"
         style="stop-color:#FAFAFA"
         id="stop83201" />
      <stop
         offset="0.7923"
         style="stop-color:#FFFFFF"
         id="stop83203" />
      <stop
         offset="0.8536"
         style="stop-color:#FBFBFB"
         id="stop83205" />
      <stop
         offset="0.913"
         style="stop-color:#EFEFEF"
         id="stop83207" />
      <stop
         offset="0.9714"
         style="stop-color:#DCDCDC"
         id="stop83209" />
      <stop
         offset="1"
         style="stop-color:#D0D0D0"
         id="stop83211" />
    </linearGradient>
    <linearGradient
       id="SVGID_16_"
       gradientUnits="userSpaceOnUse"
       x1="31"
       y1="59"
       x2="31"
       y2="7">
      <stop
         offset="0"
         style="stop-color:#545454"
         id="stop83216" />
      <stop
         offset="0.003"
         style="stop-color:#575757"
         id="stop83218" />
      <stop
         offset="0.037"
         style="stop-color:#707070"
         id="stop83220" />
      <stop
         offset="0.0681"
         style="stop-color:#7F7F7F"
         id="stop83222" />
      <stop
         offset="0.0934"
         style="stop-color:#848484"
         id="stop83224" />
      <stop
         offset="0.4195"
         style="stop-color:#6C6C6C"
         id="stop83226" />
      <stop
         offset="0.758"
         style="stop-color:#5A5A5A"
         id="stop83228" />
      <stop
         offset="1"
         style="stop-color:#535353"
         id="stop83230" />
    </linearGradient>
    <linearGradient
       id="SVGID_17_"
       gradientUnits="userSpaceOnUse"
       x1="11"
       y1="33"
       x2="52"
       y2="33">
      <stop
         offset="0"
         style="stop-color:#B6B6B6"
         id="stop83351" />
      <stop
         offset="0.0286"
         style="stop-color:#C3C3C3"
         id="stop83353" />
      <stop
         offset="0.087"
         style="stop-color:#D6D6D6"
         id="stop83355" />
      <stop
         offset="0.1464"
         style="stop-color:#E2E2E2"
         id="stop83357" />
      <stop
         offset="0.2077"
         style="stop-color:#E6E6E6"
         id="stop83359" />
      <stop
         offset="0.4272"
         style="stop-color:#E0E0E0"
         id="stop83361" />
      <stop
         offset="0.697"
         style="stop-color:#D1D1D1"
         id="stop83363" />
      <stop
         offset="0.9921"
         style="stop-color:#B8B8B8"
         id="stop83365" />
      <stop
         offset="1"
         style="stop-color:#B8B8B8"
         id="stop83367" />
    </linearGradient>
    <linearGradient
       id="SVGID_18_"
       gradientUnits="userSpaceOnUse"
       x1="3.7695"
       y1="-555.69427"
       x2="26.5079"
       y2="-573.45947"
       gradientTransform="matrix(1,0,0,-1,0,-542)">
      <stop
         offset="0"
         style="stop-color:#FFFFFF"
         id="stop83374" />
      <stop
         offset="1"
         style="stop-color:#FFFFFF;stop-opacity:0"
         id="stop83376" />
    </linearGradient>
    <linearGradient
       id="SVGID_19_"
       gradientUnits="userSpaceOnUse"
       x1="3.5058999"
       y1="47.515598"
       x2="59.568401"
       y2="47.515598">
      <stop
         offset="0"
         style="stop-color:#040404"
         id="stop83381" />
      <stop
         offset="0.125"
         style="stop-color:#0A0A0A"
         id="stop83383" />
      <stop
         offset="0.25"
         style="stop-color:#131313"
         id="stop83385" />
      <stop
         offset="0.375"
         style="stop-color:#1F1F1F"
         id="stop83387" />
      <stop
         offset="0.5"
         style="stop-color:#414141"
         id="stop83389" />
      <stop
         offset="0.635"
         style="stop-color:#1F1F1F"
         id="stop83391" />
      <stop
         offset="0.75"
         style="stop-color:#131313"
         id="stop83393" />
      <stop
         offset="0.875"
         style="stop-color:#0A0A0A"
         id="stop83395" />
      <stop
         offset="1"
         style="stop-color:#040404"
         id="stop83397" />
    </linearGradient>
    <linearGradient
       id="SVGID_20_"
       gradientUnits="userSpaceOnUse"
       x1="11"
       y1="47.515598"
       x2="52"
       y2="47.515598">
      <stop
         offset="0"
         style="stop-color:#BEBEBE"
         id="stop83400" />
      <stop
         offset="0.0372"
         style="stop-color:#CBCBCB"
         id="stop83402" />
      <stop
         offset="0.1206"
         style="stop-color:#E3E3E3"
         id="stop83404" />
      <stop
         offset="0.1973"
         style="stop-color:#F2F2F2"
         id="stop83406" />
      <stop
         offset="0.2606"
         style="stop-color:#F7F7F7"
         id="stop83408" />
      <stop
         offset="0.8303"
         style="stop-color:#F6F6F6"
         id="stop83410" />
      <stop
         offset="1"
         style="stop-color:#BFBFBF"
         id="stop83412" />
    </linearGradient>
  </defs>
  <sodipodi:namedview
     id="base"
     pagecolor="#ffffff"
     bordercolor="#666666"
     borderopacity="1.0"
     inkscape:pageopacity="0.0"
     inkscape:pageshadow="2"
     inkscape:zoom="2"
     inkscape:cx="-107.85834"
     inkscape:cy="61.076527"
     inkscape:document-units="px"
     inkscape:current-layer="layer1"
     showgrid="false"
     inkscape:showpageshadow="false"
     inkscape:window-width="1920"
     inkscape:window-height="901"
     inkscape:window-x="0"
     inkscape:window-y="32"
     inkscape:window-maximized="1"
     showguides="true"
     inkscape:guide-bbox="true"
     inkscape:snap-global="false"
     borderlayer="true"
     inkscape:object-paths="true"
     inkscape:snap-intersection-paths="true"
     inkscape:snap-smooth-nodes="true"
     inkscape:snap-midpoints="true"
     inkscape:document-rotation="0">
    <sodipodi:guide
       orientation="0,1"
       position="341.99999,-109"
       id="guide6194"
       inkscape:locked="false" />
    <sodipodi:guide
       position="307.99999,181"
       orientation="0,1"
       id="guide5195"
       inkscape:locked="false" />
  </sodipodi:namedview>
  <metadata
     id="metadata7">
    <rdf:RDF>
      <cc:Work
         rdf:about="">
        <dc:format>image/svg+xml</dc:format>
        <dc:type
           rdf:resource="http://purl.org/dc/dcmitype/StillImage" />
        <dc:title />
      </cc:Work>
    </rdf:RDF>
  </metadata>
  <g
     inkscape:label="Capa 1"
     inkscape:groupmode="layer"
     id="layer1"
     transform="translate(0,-1012.5196)">
    <g
       id="g4744"
       transform="translate(-1529.6478,-422.85633)" />
    <g
       transform="matrix(3.2309237,0,0,2.4215357,274.63504,978.64051)"
       id="g5313" />
    <g
       id="g5820"
       transform="matrix(2.6232954,0,0,2.6232954,289.24382,978.95903)" />
    <g
       transform="matrix(2.5603596,0,0,2.5603596,313.92177,967.33149)"
       id="g3809" />
    <rect
       y="994.64136"
       x="-41.385742"
       height="146.99504"
       width="328.49121"
       id="rect256"
       style="fill:#ffffff;fill-rule:evenodd" />
    <g
       transform="matrix(1.1106851,0,0,1.0453507,13.466338,920.1132)"
       id="g890">
      <g
         id="g323">
        <path
           style="fill:#a6dbe8;stroke-width:0.264583"
           d="m 70.356723,173.25724 c -1.524775,-0.32607 -2.98306,-1.12301 -3.963934,-2.16627 -2.131938,-2.26753 -2.325375,-3.83569 -2.091626,-16.95652 l 0.182649,-10.2526 h -2.268394 -2.268395 v -1.98437 -1.98438 h 2.27294 2.27294 l -0.190227,-3.43958 -0.190228,-3.43959 h 2.24984 c 1.237411,0 2.621909,-0.0744 3.076662,-0.16536 l 0.826823,-0.16537 v 3.60495 3.60495 h 4.233333 4.233333 v 1.98438 1.98437 h -4.2203 -4.220297 l 0.05311,10.78177 c 0.0591,11.99671 0.08274,12.16897 1.817216,13.24094 1.531888,0.94676 3.216971,1.18898 5.033658,0.72357 0.868643,-0.22254 1.634276,-0.40461 1.701403,-0.40461 0.06713,0 0.08728,0.92273 0.04478,2.05052 l -0.07727,2.05052 -1.408891,0.46731 c -1.651351,0.54774 -5.526134,0.80174 -7.099117,0.46537 z m 19.66777,-0.0329 c -4.666046,-0.51258 -7.53708,-2.24064 -8.656778,-5.21046 -0.800494,-2.12318 -0.647935,-5.42928 0.338286,-7.331 0.677609,-1.30663 2.352122,-3.09251 3.644646,-3.88705 2.11556,-1.30048 6.568826,-2.33066 10.074983,-2.33066 h 1.907453 l -0.162769,-2.44739 c -0.291648,-4.38522 -1.111104,-6.05813 -3.552629,-7.25266 -1.259305,-0.61612 -1.930387,-0.75393 -4.094657,-0.84086 l -2.588506,-0.10396 v 2.80889 2.8089 h -2.116667 -2.116666 v -4.37217 c 0,-5.16478 -0.41874,-4.67078 4.378539,-5.16539 8.798332,-0.90711 14.107962,1.17711 15.871892,6.23027 0.41465,1.18787 0.45607,2.45054 0.40578,12.36927 l -0.056,11.04635 h 1.47386 1.47385 v 1.99499 1.99499 l -7.209891,-0.0569 c -3.965443,-0.0313 -8.022066,-0.14612 -9.014716,-0.25517 z m 7.36107,-9.36646 v -5.55625 l -1.984375,0.0819 c -5.167346,0.2133 -7.923254,2.3004 -7.927337,6.0035 -0.0038,3.39919 2.829923,5.18079 8.059629,5.06728 l 1.852083,-0.0402 z m 23.018747,9.49171 c -0.29104,-0.0573 -1.18401,-0.23307 -1.98437,-0.39057 -5.16487,-1.01634 -9.01169,-4.8838 -10.49999,-10.55635 -0.63042,-2.40275 -0.63436,-8.23017 -0.007,-10.58333 1.56929,-5.88779 5.65262,-10.05331 11.32001,-11.54783 1.84158,-0.48563 7.04849,-0.58175 9.2413,-0.17059 l 1.19063,0.22325 0.0723,4.68925 0.0722,4.68925 h -2.12277 -2.12277 v -2.63384 -2.63384 l -0.95741,-0.17962 c -0.52658,-0.0988 -1.71122,-0.10922 -2.63254,-0.0232 -3.40663,0.31811 -5.84179,2.33746 -7.16919,5.94504 -0.71211,1.93535 -0.74925,2.25415 -0.73086,6.27232 0.0166,3.62618 0.0997,4.45088 0.57952,5.75021 1.53568,4.15865 4.28218,6.13621 8.99225,6.47466 l 2.18281,0.15685 v 2.1788 c 0,2.03584 -0.0391,2.18927 -0.59531,2.33834 -0.64036,0.17161 -3.95905,0.17242 -4.82865,0.001 z m 19.874,-0.13272 c -4.97186,-0.50562 -8.01216,-2.52018 -8.92963,-5.91694 -0.4504,-1.66755 -0.17012,-5.09847 0.53561,-6.55631 1.24424,-2.57028 4.18166,-4.63509 7.9669,-5.60021 0.94588,-0.24118 3.05924,-0.51013 4.69635,-0.59769 l 2.97656,-0.15918 -0.002,-1.34975 c -0.003,-2.1853 -0.51009,-4.68639 -1.21024,-5.97197 -1.17335,-2.15467 -3.44511,-3.18298 -7.03178,-3.18298 h -2.07462 v 2.77813 2.77812 h -2.11666 -2.11667 v -4.46707 -4.46708 l 0.7276,-0.15427 c 0.40019,-0.0849 2.41359,-0.30043 4.47424,-0.47905 4.28438,-0.37139 7.12369,-0.12261 9.73001,0.85254 2.17582,0.81408 4.37651,2.99734 5.15307,5.11225 0.55274,1.50534 0.57116,1.92215 0.55838,12.63386 l -0.0132,11.07715 h 1.45891 1.45892 v 1.99175 1.99175 l -7.07761,-0.0504 c -3.89268,-0.0277 -8.01649,-0.14592 -9.16402,-0.26262 z m 7.24579,-9.35899 v -5.68854 l -0.59531,0.008 c -2.04512,0.0281 -4.73169,0.60102 -6.20276,1.32285 -1.4475,0.71027 -1.72131,0.97295 -2.34681,2.25141 -0.58613,1.19802 -0.68895,1.71213 -0.59691,2.98465 0.2343,3.23915 2.64352,4.68631 7.95585,4.77888 l 1.78594,0.0311 z m -107.156242,6.87917 v -2.24896 h 2.976562 l 2.976562,-1e-5 0.01197,-11.90624 0.01197,-11.90625 h -2.988536 -2.988535 v -2.38564 -2.38565 l 6.945312,0.0705 6.945312,0.0705 0.06844,14.22136 0.06844,14.22135 h 3.040412 3.040409 v 2.24896 2.24896 H 50.422024 40.367858 Z m 8.350139,-32.87456 c -0.693123,-1.67581 -2.98443,-3.45976 -6.834559,-5.3212 -2.439907,-1.17963 -3.671492,-1.96491 -5.009192,-3.19396 -4.008295,-3.68273 -6.093136,-8.40223 -6.085186,-13.77519 0.0047,-3.1844 0.570711,-5.61961 1.968012,-8.46738 1.568152,-3.19598 4.943979,-6.5718 8.139952,-8.139955 2.870413,-1.40841 5.281037,-1.9624 8.518788,-1.957717 8.37455,0.01211 15.63282,5.627642 17.839362,13.801832 0.63522,2.3532 0.632572,7.18856 -0.0052,9.525 -1.006393,3.68676 -3.404457,7.32079 -6.434928,9.7515 -1.492303,1.19695 -2.405991,1.70846 -6.159669,3.44831 -1.867532,0.86561 -4.154624,2.87681 -4.843524,4.25925 l -0.613435,1.23101 -0.480401,-1.1615 z m 1.685258,-5.9507 c 0.404628,-0.49527 1.87471,-1.37734 3.968749,-2.38132 2.946559,-1.41272 3.553687,-1.82458 5.321035,-3.60967 3.180472,-3.2124 4.719156,-7.17037 4.388334,-11.28815 -0.63242,-7.87174 -6.948426,-13.87789 -14.59385,-13.87789 -4.343448,0 -7.542609,1.31727 -10.582916,4.35758 -3.042069,3.04207 -4.360339,6.20527 -4.354442,10.44853 0.0059,4.21062 1.371718,7.50097 4.341408,10.45838 1.389289,1.38355 2.419932,2.12749 3.989826,2.87995 1.164167,0.55799 2.63218,1.26617 3.262251,1.57373 1.169467,0.57086 2.942959,2.29748 2.971017,2.89249 0.0086,0.18148 0.157385,0.10565 0.330729,-0.1685 0.173343,-0.27416 0.60438,-0.85247 0.957859,-1.28513 z m -5.934356,-3.62219 c -1.180214,-0.2838 -1.821308,-0.68864 -2.730705,-1.72438 -1.580964,-1.80062 -1.6847,-4.29435 -0.260429,-6.2605 2.32479,-3.20928 7.246917,-2.56667 8.799339,1.1488 0.585472,1.40123 0.508374,2.54685 -0.277534,4.12396 -1.026058,2.05903 -3.401785,3.22403 -5.530671,2.71212 z m 7.834331,-0.65199 c -0.792359,-0.43917 -1.330473,-1.3887 -1.342664,-2.36921 -0.01343,-1.07985 1.507975,-2.55323 2.636458,-2.55323 1.071872,0 2.645833,1.47212 2.645833,2.47464 0,2.12804 -2.129428,3.45112 -3.939627,2.4478 z m 5.182875,-3.80596 c -0.599602,-0.66255 -0.567926,-1.52722 0.07967,-2.17481 1.322311,-1.32231 3.392049,0.10902 2.589824,1.79099 -0.443391,0.92963 -1.976107,1.15001 -2.669492,0.38382 z m -5.480709,-2.39282 c -1.267471,-0.66349 -2.196762,-2.46743 -1.985976,-3.85518 0.410751,-2.70424 3.082992,-4.09689 5.583968,-2.9101 1.977718,0.93849 2.663891,3.99233 1.26941,5.64958 -1.357535,1.61334 -3.137389,2.02131 -4.867402,1.1157 z m -14.87869,-0.86152 c -0.254664,-0.14833 -0.641618,-0.61504 -0.859896,-1.03715 -1.419369,-2.74475 1.828483,-5.2826 4.129433,-3.2267 1.805064,1.61283 0.681554,4.55965 -1.731532,4.54158 -0.591238,-0.004 -1.28334,-0.1294 -1.538005,-0.27773 z m 21.960416,-0.79375 c -0.692896,-0.40357 -1.311523,-1.76703 -1.10681,-2.43942 0.851596,-2.79713 4.612545,-2.2703 4.612545,0.64611 0,0.29276 -0.348028,0.88032 -0.773399,1.30569 -0.807503,0.80751 -1.860491,0.99543 -2.732336,0.48762 z m -14.618223,-2.53465 c -2.379953,-0.55979 -4.328667,-2.03308 -5.193502,-3.92644 -0.680495,-1.48979 -0.653161,-4.03501 0.05962,-5.55138 0.630729,-1.34182 2.254975,-2.92192 3.567106,-3.47017 1.27412,-0.53236 3.987237,-0.46427 5.270945,0.13227 1.339477,0.62247 2.888532,2.23126 3.453122,3.58629 0.972872,2.33491 0.336264,5.44164 -1.4891,7.26701 -1.397796,1.39779 -4.096445,2.33211 -5.668189,1.96242 z m -8.281458,-2.52415 c -0.174625,-0.17463 -0.3175,-0.64669 -0.3175,-1.04903 0,-1.32432 1.756192,-1.65349 2.400335,-0.44989 0.608351,1.13671 -1.167234,2.41452 -2.082835,1.49892 z M 60.79369,114.1956 c -0.481282,-0.48128 -0.380645,-1.39542 0.212741,-1.93243 1.026771,-0.92921 2.528543,0.45478 1.856359,1.71077 -0.324456,0.60625 -1.552911,0.73785 -2.0691,0.22166 z m -6.718591,-1.22741 c -0.969777,-0.9046 -1.100553,-1.17241 -1.195109,-2.4474 -0.08259,-1.1137 0.01407,-1.62315 0.435303,-2.29396 1.472607,-2.34516 4.409662,-2.55939 6.367147,-0.46443 0.557583,0.59674 0.661458,0.96426 0.661458,2.34025 0,2.5581 -1.302763,3.88128 -3.821379,3.88128 -1.209921,0 -1.477574,-0.11108 -2.44742,-1.01574 z m -3.123909,-6.92176 c -0.327579,-0.32758 -0.529166,-0.88194 -0.529166,-1.4552 0,-1.89591 2.269693,-2.7501 3.420379,-1.28724 0.727438,0.92479 0.692608,1.82851 -0.101062,2.62218 -0.801757,0.80176 -2.054654,0.85576 -2.790151,0.12026 z"
           id="path904"
           inkscape:connector-curvature="0" />
        <path
           style="fill:#9fa5aa;stroke-width:0.264583"
           d="m 70.544559,173.22675 c -2.735479,-0.47711 -4.871423,-2.28036 -5.759661,-4.86256 -0.412065,-1.19791 -0.450062,-2.49106 -0.379262,-12.90682 l 0.07868,-11.57552 h -2.268648 -2.268649 v -1.98437 -1.98438 h 2.288527 2.288527 l -0.181584,-3.43958 -0.181583,-3.43959 h 3.052431 3.052432 v 3.43959 3.43958 h 4.101041 4.101042 v 1.98438 1.98437 H 74.353254 70.23865 l 0.07971,10.91406 c 0.07639,10.4593 0.10237,10.95264 0.623617,11.83996 1.279279,2.1777 4.527831,2.88455 7.686439,1.67248 0.329626,-0.12649 0.379651,0.17966 0.314183,1.92282 l -0.07787,2.07326 -1.465064,0.44524 c -1.898634,0.57699 -5.031983,0.79506 -6.855108,0.47708 z m 20.358713,0.0188 c -1.382448,-0.10846 -3.047328,-0.34236 -3.699735,-0.51978 -4.414602,-1.20052 -6.586775,-4.1623 -6.29427,-8.58231 0.382658,-5.78234 5.059118,-9.10599 13.499734,-9.59452 l 2.84427,-0.16463 v -1.59155 c 0,-4.25256 -1.105643,-6.79283 -3.492976,-8.02527 -1.191945,-0.61533 -1.807831,-0.74029 -4.113794,-0.83467 l -2.711979,-0.11101 v 2.80814 2.80813 h -1.984375 -1.984375 v -4.46484 -4.46485 l 0.850191,-0.17003 c 3.592393,-0.71848 9.377963,-0.76609 12.114392,-0.0997 3.115601,0.75874 5.549765,2.60362 6.652275,5.04181 0.6201,1.37137 0.62422,1.44672 0.70051,12.8227 l 0.0767,11.44323 h 1.4562 1.4562 l -0.0777,1.91823 -0.0777,1.91823 -6.349997,0.0299 c -3.4925,0.0165 -7.481093,-0.0588 -8.863541,-0.16726 z m 6.614583,-9.42406 v -5.72493 l -2.254176,0.1829 c -5.594307,0.45392 -8.003733,2.4208 -7.754784,6.33045 0.215855,3.38993 2.556611,4.85968 7.826147,4.914 l 2.182813,0.0225 z m 22.357295,9.39841 c -3.55762,-0.51708 -6.2379,-1.86321 -8.52515,-4.28164 -4.8687,-5.14794 -5.34137,-16.08372 -0.97159,-22.47912 1.53604,-2.24807 3.14716,-3.65641 5.52799,-4.83223 3.01984,-1.4914 4.69915,-1.79501 9.12327,-1.64943 2.11272,0.0695 4.04967,0.21528 4.30433,0.3239 0.41565,0.17728 0.46302,0.66824 0.46302,4.79938 v 4.6019 h -1.98438 -1.98437 v -2.61497 c 0,-3.01082 0.0758,-2.9312 -2.79625,-2.93766 -2.34898,-0.005 -4.07984,0.60094 -5.5885,1.95735 -2.48994,2.23867 -3.58816,5.3254 -3.58548,10.07758 0.005,8.05955 3.14319,12.06817 9.78742,12.50032 l 2.18281,0.14197 v 2.1757 2.1757 l -1.22755,0.16826 c -1.49918,0.20548 -2.65093,0.17453 -4.72557,-0.12701 z m 21.29895,0.0256 c -1.38245,-0.10846 -3.04733,-0.34236 -3.69973,-0.51978 -4.4471,-1.20936 -6.58893,-4.12976 -6.29427,-8.58232 0.38333,-5.79259 5.05713,-9.10592 13.53711,-9.59665 l 2.88164,-0.16677 -0.15622,-2.53712 c -0.25189,-4.09097 -1.12928,-5.89632 -3.44748,-7.09365 -1.15175,-0.59487 -1.79093,-0.72284 -4.07782,-0.81645 l -2.71198,-0.111 v 2.81926 2.81927 l -2.04941,-0.0773 -2.04941,-0.0773 -0.001,-4.34659 -10e-4,-4.34658 0.79375,-0.21335 c 1.45592,-0.39134 7.64475,-0.80117 9.39002,-0.62183 5.02282,0.51616 8.07487,2.3077 9.61741,5.64541 0.55383,1.19837 0.57414,1.59538 0.64848,12.68033 l 0.0768,11.44323 h 1.4562 1.45619 l -0.0777,1.91823 -0.0777,1.91823 -6.35,0.0299 c -3.4925,0.0165 -7.48109,-0.0588 -8.86354,-0.16726 z m 6.61459,-9.42407 v -5.72492 l -2.25418,0.1829 c -5.62374,0.45631 -8.00402,2.41621 -7.75147,6.38249 0.12685,1.99218 0.65349,2.86544 2.2742,3.77108 1.37679,0.76933 2.80225,1.04792 5.54863,1.08439 l 2.18282,0.029 v -5.72492 z M 40.367858,170.737 v -2.24896 h 3.042708 3.042708 V 156.58185 144.6756 h -3.042708 -3.042708 v -2.24896 -2.24896 h 6.879166 6.879166 v 14.14681 14.14682 l 3.108854,0.0745 3.108854,0.0745 0.07685,2.18281 0.07684,2.18282 H 50.432724 40.367858 Z m 2.858471,-42.99072 c -1.660473,-0.90208 -2.434017,-2.18357 -2.540201,-4.20821 -0.0822,-1.56727 -0.01099,-1.87468 0.685358,-2.95868 0.990217,-1.54147 2.331577,-2.2308 4.320513,-2.22032 4.695606,0.0247 6.554117,5.96607 2.801956,8.95735 -1.322307,1.05417 -3.753295,1.25254 -5.267626,0.42986 z m 9.444653,0.0204 c -1.686116,-0.72202 -2.131971,-2.90756 -0.853883,-4.18565 1.606654,-1.60665 4.281441,-0.49466 4.281441,1.77993 0,1.7423 -1.88582,3.06591 -3.427558,2.40572 z m -15.798666,-7.67031 c -2.256548,-2.01623 0.23088,-5.5427 2.92639,-4.1488 1.604988,0.82997 1.891122,2.84045 0.589504,4.14207 -1.053747,1.05375 -2.341316,1.05621 -3.515894,0.007 z m 22.413249,-0.34665 c -1.356667,-0.77805 -1.614014,-2.45609 -0.541192,-3.52891 1.184201,-1.18421 3.078512,-0.6691 3.665601,0.99676 0.262133,0.74379 -0.348681,2.04562 -1.155581,2.46288 -0.893207,0.4619 -1.26161,0.47486 -1.968828,0.0693 z M 42.749107,116.6083 c -6.238196,-2.82381 -4.700662,-11.98996 2.114867,-12.60797 2.826525,-0.25631 5.321749,1.1834 6.523432,3.76391 2.038469,4.37744 -1.158345,9.38301 -5.992465,9.38301 -0.89796,0 -1.91114,-0.20638 -2.645834,-0.53895 z m 11.879231,-3.22501 c -1.223854,-0.81759 -1.882799,-2.15725 -1.74243,-3.54244 0.386308,-3.81219 5.394357,-4.79205 7.126851,-1.39442 1.276136,2.50266 -0.572444,5.53744 -3.373027,5.53744 -0.716037,0 -1.43269,-0.21398 -2.011394,-0.60058 z m -3.509174,-7.35612 c -1.911036,-1.50322 0.394074,-4.42681 2.388756,-3.02968 0.769641,0.53908 0.977191,1.56982 0.501377,2.48994 -0.633912,1.22585 -1.75235,1.43472 -2.890133,0.53974 z"
           id="path902"
           inkscape:connector-curvature="0" />
        <path
           style="fill:#56b6df;stroke-width:0.264583"
           d="m 69.824443,173.01245 c -1.40639,-0.36126 -3.128619,-1.52411 -3.894868,-2.6298 -1.436616,-2.07304 -1.484635,-2.56356 -1.484635,-15.16577 v -11.59961 h -2.248958 -2.248959 v -1.85209 -1.85208 h 2.241053 2.241055 l 0.07405,-3.37344 0.07405,-3.37343 2.844271,-0.0751 2.844271,-0.0751 v 3.44854 3.44853 h 4.101041 4.101042 v 1.85208 1.85209 h -4.101042 -4.101041 l 0.0016,10.64948 c 7.94e-4,6.41376 0.108681,11.03545 0.27101,11.6199 0.679858,2.44774 4.246944,3.80761 7.212626,2.74965 l 1.002821,-0.35774 -0.07678,1.9972 -0.07678,1.99719 -1.058334,0.38807 c -1.207219,0.44267 -6.435365,0.68074 -7.717371,0.35143 z m 19.144902,-0.0379 c -4.767656,-0.80096 -7.198063,-2.78916 -7.872552,-6.44013 -0.380987,-2.06227 -0.120248,-3.90744 0.833027,-5.89507 0.945909,-1.97227 2.122572,-3.05344 4.594085,-4.22126 2.22219,-1.05002 4.605993,-1.57786 8.275753,-1.83248 l 2.705761,-0.18774 -0.146203,-2.01688 c -0.317521,-4.38029 -1.149371,-6.31023 -3.2482,-7.53601 -1.110342,-0.64848 -3.486951,-1.2182 -5.104333,-1.22361 -2.089327,-0.007 -2.072161,-0.0324 -2.072161,3.06688 v 2.74982 h -1.984375 -1.984375 v -4.4633 -4.4633 l 2.333022,-0.2992 c 3.293398,-0.42236 8.568785,-0.37224 10.573744,0.10046 3.300923,0.77824 5.355552,2.32812 6.568722,4.95503 l 0.76514,1.65677 0.0793,11.31094 0.0793,11.31093 h 1.30975 1.30976 v 1.85209 1.85208 l -7.871353,-0.0311 c -4.329244,-0.0171 -8.443965,-0.12732 -9.143822,-0.2449 z m 8.54851,-9.15585 v -5.72771 l -2.315104,0.15101 c -5.23212,0.34127 -7.775104,2.29235 -7.808785,5.99121 -0.02537,2.78611 1.456547,4.40457 4.699931,5.13297 0.291041,0.0654 1.630494,0.13265 2.976562,0.14953 l 2.447396,0.0307 z m 20.423345,8.89609 c -6.80921,-1.78381 -10.36918,-7.18732 -10.36918,-15.73886 0,-7.24363 2.89759,-12.50278 8.47279,-15.37818 2.51559,-1.29741 5.43288,-1.79819 9.316,-1.59918 4.9222,0.25227 4.43621,-0.30696 4.43621,5.10473 v 4.59935 h -1.97512 -1.97512 l -0.0754,-2.71198 -0.0754,-2.71197 -2.53901,-0.0752 c -2.4253,-0.0719 -2.61453,-0.0361 -4.22517,0.79763 -4.19888,2.17363 -6.13394,8.11425 -4.89861,15.03869 0.99483,5.57634 4.58423,8.71287 9.97087,8.71287 h 1.82421 v 2.24896 2.24896 l -2.97656,-0.0146 c -2.04167,-0.01 -3.58399,-0.17369 -4.91051,-0.52121 z m 20.70013,0.14816 c -5.07002,-0.9208 -7.34206,-3.37024 -7.3712,-7.94675 -0.0187,-2.93003 0.60513,-4.62658 2.33762,-6.35779 2.31734,-2.31561 5.25877,-3.38908 10.67521,-3.89588 l 3.24114,-0.30327 v -2.00813 c 0,-3.71972 -1.08683,-6.30042 -3.16643,-7.51872 -1.62825,-0.95389 -5.89921,-1.58307 -6.81132,-1.00341 -0.20665,0.13133 -0.3476,1.13999 -0.39688,2.84021 l -0.0764,2.63657 -1.91823,0.0777 -1.91823,0.0777 v -4.47489 -4.47489 l 2.33302,-0.2992 c 2.99774,-0.38445 8.35557,-0.38453 10.14784,-1.5e-4 3.44115,0.73799 5.57614,2.2657 6.8867,4.92783 l 0.87307,1.77345 v 11.3165 11.3165 h 1.38906 1.38906 v 1.85209 1.85208 l -7.87135,-0.0239 c -5.16081,-0.0157 -8.51575,-0.14091 -9.74267,-0.36374 z m 9.14736,-9.04425 v -5.72771 l -2.31511,0.15472 c -3.15153,0.2106 -4.96262,0.84083 -6.3245,2.20082 -2.48348,2.48002 -1.96401,6.63877 1.02424,8.1998 1.16482,0.60849 2.56548,0.84523 5.16797,0.8735 l 2.4474,0.0266 z m -107.420832,6.91833 v -2.24896 h 3.042708 3.042708 V 156.58185 144.6756 h -3.042708 -3.042708 v -2.24896 -2.24896 h 6.879166 6.879166 v 14.14681 14.14682 l 3.108854,0.0745 3.108854,0.0745 0.07685,2.18281 0.07684,2.18282 H 50.432724 40.367858 Z m 2.858471,-42.99072 c -1.660473,-0.90208 -2.434017,-2.18357 -2.540201,-4.20821 -0.0822,-1.56727 -0.01099,-1.87468 0.685358,-2.95868 0.990217,-1.54147 2.331577,-2.2308 4.320513,-2.22032 4.695606,0.0247 6.554117,5.96607 2.801956,8.95735 -1.322307,1.05417 -3.753295,1.25254 -5.267626,0.42986 z m 9.444653,0.0204 c -1.686116,-0.72202 -2.131971,-2.90756 -0.853883,-4.18565 1.606654,-1.60665 4.281441,-0.49466 4.281441,1.77993 0,1.7423 -1.88582,3.06591 -3.427558,2.40572 z M 36.872316,120.0964 c -2.256548,-2.01623 0.23088,-5.5427 2.92639,-4.1488 1.604988,0.82997 1.891122,2.84045 0.589504,4.14207 -1.053747,1.05375 -2.341316,1.05621 -3.515894,0.007 z m 22.413249,-0.34665 c -1.356667,-0.77805 -1.614014,-2.45609 -0.541192,-3.52891 1.184201,-1.18421 3.078512,-0.6691 3.665601,0.99676 0.262133,0.74379 -0.348681,2.04562 -1.155581,2.46288 -0.893207,0.4619 -1.26161,0.47486 -1.968828,0.0693 z m -16.536458,-3.14142 c -6.238196,-2.82381 -4.700662,-11.98996 2.114867,-12.60797 2.826525,-0.25631 5.321749,1.1834 6.523432,3.76391 2.038469,4.37744 -1.158345,9.38301 -5.992465,9.38301 -0.89796,0 -1.91114,-0.20638 -2.645834,-0.53895 z m 11.879231,-3.22501 c -1.223854,-0.81759 -1.882799,-2.15725 -1.74243,-3.54244 0.386308,-3.81219 5.394357,-4.79205 7.126851,-1.39442 1.276136,2.50266 -0.572444,5.53744 -3.373027,5.53744 -0.716037,0 -1.43269,-0.21398 -2.011394,-0.60058 z m -3.509174,-7.35612 c -1.911036,-1.50322 0.394074,-4.42681 2.388756,-3.02968 0.769641,0.53908 0.977191,1.56982 0.501377,2.48994 -0.633912,1.22585 -1.75235,1.43472 -2.890133,0.53974 z"
           id="path900"
           inkscape:connector-curvature="0" />
        <path
           style="fill:#00a4db;stroke-width:0.264583"
           d="m 69.824443,173.01245 c -1.40639,-0.36126 -3.128619,-1.52411 -3.894868,-2.6298 -1.436616,-2.07304 -1.484635,-2.56356 -1.484635,-15.16577 v -11.59961 h -2.248958 -2.248959 v -1.85209 -1.85208 h 2.241053 2.241055 l 0.07405,-3.37344 0.07405,-3.37343 2.844271,-0.0751 2.844271,-0.0751 v 3.44854 3.44853 h 4.101041 4.101042 v 1.85208 1.85209 h -4.101042 -4.101041 l 0.0016,10.64948 c 7.94e-4,6.41376 0.108681,11.03545 0.27101,11.6199 0.679858,2.44774 4.246944,3.80761 7.212626,2.74965 l 1.002821,-0.35774 -0.07678,1.9972 -0.07678,1.99719 -1.058334,0.38807 c -1.207219,0.44267 -6.435365,0.68074 -7.717371,0.35143 z m 19.144902,-0.0379 c -4.767656,-0.80096 -7.198063,-2.78916 -7.872552,-6.44013 -0.380987,-2.06227 -0.120248,-3.90744 0.833027,-5.89507 0.945909,-1.97227 2.122572,-3.05344 4.594085,-4.22126 2.22219,-1.05002 4.605993,-1.57786 8.275753,-1.83248 l 2.705761,-0.18774 -0.146203,-2.01688 c -0.317521,-4.38029 -1.149371,-6.31023 -3.2482,-7.53601 -1.110342,-0.64848 -3.486951,-1.2182 -5.104333,-1.22361 -2.089327,-0.007 -2.072161,-0.0324 -2.072161,3.06688 v 2.74982 h -1.984375 -1.984375 v -4.4633 -4.4633 l 2.333022,-0.2992 c 3.293398,-0.42236 8.568785,-0.37224 10.573744,0.10046 3.300923,0.77824 5.355552,2.32812 6.568722,4.95503 l 0.76514,1.65677 0.0793,11.31094 0.0793,11.31093 h 1.30975 1.30976 v 1.85209 1.85208 l -7.871353,-0.0311 c -4.329244,-0.0171 -8.443965,-0.12732 -9.143822,-0.2449 z m 8.54851,-9.15585 v -5.72771 l -2.315104,0.15101 c -5.23212,0.34127 -7.775104,2.29235 -7.808785,5.99121 -0.02537,2.78611 1.456547,4.40457 4.699931,5.13297 0.291041,0.0654 1.630494,0.13265 2.976562,0.14953 l 2.447396,0.0307 z m 20.423345,8.89609 c -6.80921,-1.78381 -10.36918,-7.18732 -10.36918,-15.73886 0,-7.24363 2.89759,-12.50278 8.47279,-15.37818 2.51559,-1.29741 5.43288,-1.79819 9.316,-1.59918 4.9222,0.25227 4.43621,-0.30696 4.43621,5.10473 v 4.59935 h -1.97512 -1.97512 l -0.0754,-2.71198 -0.0754,-2.71197 -2.53901,-0.0752 c -2.4253,-0.0719 -2.61453,-0.0361 -4.22517,0.79763 -4.19888,2.17363 -6.13394,8.11425 -4.89861,15.03869 0.99483,5.57634 4.58423,8.71287 9.97087,8.71287 h 1.82421 v 2.24896 2.24896 l -2.97656,-0.0146 c -2.04167,-0.01 -3.58399,-0.17369 -4.91051,-0.52121 z m 20.70013,0.14816 c -5.07002,-0.9208 -7.34206,-3.37024 -7.3712,-7.94675 -0.0187,-2.93003 0.60513,-4.62658 2.33762,-6.35779 2.31734,-2.31561 5.25877,-3.38908 10.67521,-3.89588 l 3.24114,-0.30327 v -2.00813 c 0,-3.71972 -1.08683,-6.30042 -3.16643,-7.51872 -1.62825,-0.95389 -5.89921,-1.58307 -6.81132,-1.00341 -0.20665,0.13133 -0.3476,1.13999 -0.39688,2.84021 l -0.0764,2.63657 -1.91823,0.0777 -1.91823,0.0777 v -4.47489 -4.47489 l 2.33302,-0.2992 c 2.99774,-0.38445 8.35557,-0.38453 10.14784,-1.5e-4 3.44115,0.73799 5.57614,2.2657 6.8867,4.92783 l 0.87307,1.77345 v 11.3165 11.3165 h 1.38906 1.38906 v 1.85209 1.85208 l -7.87135,-0.0239 c -5.16081,-0.0157 -8.51575,-0.14091 -9.74267,-0.36374 z m 9.14736,-9.04425 v -5.72771 l -2.31511,0.15472 c -3.15153,0.2106 -4.96262,0.84083 -6.3245,2.20082 -2.48348,2.48002 -1.96401,6.63877 1.02424,8.1998 1.16482,0.60849 2.56548,0.84523 5.16797,0.8735 l 2.4474,0.0266 z m -107.420832,7.05062 v -2.11667 h 3.042708 3.042708 v -12.17083 -12.17083 h -3.042708 -3.042708 v -2.11667 -2.11667 h 6.879166 6.879166 v 14.2875 14.2875 h 3.042708 3.042709 v 2.11667 2.11667 h -9.921875 -9.921874 z m 2.954938,-43.16564 c -2.760359,-1.36634 -3.575628,-5.248 -1.579696,-7.52124 1.125563,-1.28195 2.124422,-1.73842 3.804035,-1.73842 2.749611,0 4.622416,1.75354 4.822168,4.51509 0.169169,2.33873 -0.8424,4.03515 -2.925027,4.90533 -1.349138,0.5637 -2.769829,0.50829 -4.12148,-0.16076 z m 8.542409,-0.61088 c -0.90249,-0.90248 -0.90249,-2.56114 0,-3.46363 0.90249,-0.90249 2.561147,-0.90249 3.463636,0 0.902491,0.90249 0.902491,2.56115 0,3.46363 -0.477854,0.47786 -0.935395,0.64944 -1.731817,0.64944 -0.796423,0 -1.253964,-0.17158 -1.731819,-0.64944 z m -14.313308,-6.49208 c -1.306782,-0.52736 -1.870159,-2.67763 -1.019677,-3.89186 1.040111,-1.48497 3.666622,-1.23552 4.349497,0.41309 0.93683,2.26171 -1.092379,4.38168 -3.32982,3.47877 z M 58.64331,119.1076 c -1.679371,-2.13498 1.122638,-4.79966 3.03553,-2.88676 1.39749,1.39748 0.463339,3.5839 -1.531228,3.5839 -0.717571,0 -1.092668,-0.17383 -1.504302,-0.69714 z m -15.60699,-2.38686 c -1.744491,-0.64029 -3.342843,-2.37707 -3.876269,-4.21199 -1.420149,-4.88514 2.777386,-9.43697 7.688853,-8.33784 5.777657,1.29299 6.972558,9.07587 1.853953,12.07557 -1.536748,0.9006 -3.953791,1.10289 -5.666537,0.47426 z m 12.545079,-2.93071 c -1.030015,-0.2579 -1.94885,-1.15062 -2.399917,-2.33172 -1.680128,-4.39936 4.910243,-7.15419 6.814794,-2.84865 1.336849,3.02218 -1.190464,5.9877 -4.414877,5.18037 z m -4.037046,-7.48808 c -1.313247,-0.52771 -1.429223,-2.51473 -0.194014,-3.32407 1.933556,-1.26692 3.899547,1.61705 2.078711,3.04932 -0.76269,0.59993 -0.99219,0.63339 -1.884697,0.27475 z"
           id="path898"
           inkscape:connector-curvature="0" />
        <path
           style="fill:#037cae;stroke-width:0.264583"
           d="m 69.824443,173.01245 c -1.40639,-0.36126 -3.128619,-1.52411 -3.894868,-2.6298 -1.436616,-2.07304 -1.484635,-2.56356 -1.484635,-15.16577 v -11.59961 h -2.248958 -2.248959 v -1.85209 -1.85208 h 2.241053 2.241055 l 0.07405,-3.37344 0.07405,-3.37343 2.844271,-0.0751 2.844271,-0.0751 v 3.44854 3.44853 h 4.101041 4.101042 v 1.85208 1.85209 h -4.101042 -4.101041 l 0.0016,10.64948 c 7.94e-4,6.41376 0.108681,11.03545 0.27101,11.6199 0.679858,2.44774 4.246944,3.80761 7.212626,2.74965 l 1.002821,-0.35774 -0.07678,1.9972 -0.07678,1.99719 -1.058334,0.38807 c -1.207219,0.44267 -6.435365,0.68074 -7.717371,0.35143 z m 19.144902,-0.0379 c -4.767656,-0.80096 -7.198063,-2.78916 -7.872552,-6.44013 -0.380987,-2.06227 -0.120248,-3.90744 0.833027,-5.89507 0.945909,-1.97227 2.122572,-3.05344 4.594085,-4.22126 2.22219,-1.05002 4.605993,-1.57786 8.275753,-1.83248 l 2.705761,-0.18774 -0.146203,-2.01688 c -0.317521,-4.38029 -1.149371,-6.31023 -3.2482,-7.53601 -1.110342,-0.64848 -3.486951,-1.2182 -5.104333,-1.22361 -2.089327,-0.007 -2.072161,-0.0324 -2.072161,3.06688 v 2.74982 h -1.984375 -1.984375 v -4.4633 -4.4633 l 2.333022,-0.2992 c 3.293398,-0.42236 8.568785,-0.37224 10.573744,0.10046 3.300923,0.77824 5.355552,2.32812 6.568722,4.95503 l 0.76514,1.65677 0.0793,11.31094 0.0793,11.31093 h 1.30975 1.30976 v 1.85209 1.85208 l -7.871353,-0.0311 c -4.329244,-0.0171 -8.443965,-0.12732 -9.143822,-0.2449 z m 8.54851,-9.15585 v -5.72771 l -2.315104,0.15101 c -5.23212,0.34127 -7.775104,2.29235 -7.808785,5.99121 -0.02537,2.78611 1.456547,4.40457 4.699931,5.13297 0.291041,0.0654 1.630494,0.13265 2.976562,0.14953 l 2.447396,0.0307 z m 20.423345,8.89609 c -6.80921,-1.78381 -10.36918,-7.18732 -10.36918,-15.73886 0,-7.24363 2.89759,-12.50278 8.47279,-15.37818 2.51559,-1.29741 5.43288,-1.79819 9.316,-1.59918 4.9222,0.25227 4.43621,-0.30696 4.43621,5.10473 v 4.59935 h -1.97512 -1.97512 l -0.0754,-2.71198 -0.0754,-2.71197 -2.53901,-0.0752 c -2.4253,-0.0719 -2.61453,-0.0361 -4.22517,0.79763 -4.19888,2.17363 -6.13394,8.11425 -4.89861,15.03869 0.99483,5.57634 4.58423,8.71287 9.97087,8.71287 h 1.82421 v 2.24896 2.24896 l -2.97656,-0.0146 c -2.04167,-0.01 -3.58399,-0.17369 -4.91051,-0.52121 z m 20.70013,0.14816 c -5.07002,-0.9208 -7.34206,-3.37024 -7.3712,-7.94675 -0.0187,-2.93003 0.60513,-4.62658 2.33762,-6.35779 2.31734,-2.31561 5.25877,-3.38908 10.67521,-3.89588 l 3.24114,-0.30327 v -2.00813 c 0,-3.71972 -1.08683,-6.30042 -3.16643,-7.51872 -1.62825,-0.95389 -5.89921,-1.58307 -6.81132,-1.00341 -0.20665,0.13133 -0.3476,1.13999 -0.39688,2.84021 l -0.0764,2.63657 -1.91823,0.0777 -1.91823,0.0777 v -4.47489 -4.47489 l 2.33302,-0.2992 c 2.99774,-0.38445 8.35557,-0.38453 10.14784,-1.5e-4 3.44115,0.73799 5.57614,2.2657 6.8867,4.92783 l 0.87307,1.77345 v 11.3165 11.3165 h 1.38906 1.38906 v 1.85209 1.85208 l -7.87135,-0.0239 c -5.16081,-0.0157 -8.51575,-0.14091 -9.74267,-0.36374 z m 9.14736,-9.04425 v -5.72771 l -2.31511,0.15472 c -3.15153,0.2106 -4.96262,0.84083 -6.3245,2.20082 -2.48348,2.48002 -1.96401,6.63877 1.02424,8.1998 1.16482,0.60849 2.56548,0.84523 5.16797,0.8735 l 2.4474,0.0266 z M 58.64331,119.1076 c -1.679371,-2.13498 1.122638,-4.79966 3.03553,-2.88676 1.39749,1.39748 0.463339,3.5839 -1.531228,3.5839 -0.717571,0 -1.092668,-0.17383 -1.504302,-0.69714 z m -15.60699,-2.38686 c -1.744491,-0.64029 -3.342843,-2.37707 -3.876269,-4.21199 -1.420149,-4.88514 2.777386,-9.43697 7.688853,-8.33784 5.777657,1.29299 6.972558,9.07587 1.853953,12.07557 -1.536748,0.9006 -3.953791,1.10289 -5.666537,0.47426 z"
           id="path896"
           inkscape:connector-curvature="0" />
        <path
           style="fill:#44545f;stroke-width:0.264583"
           d="m 69.824443,173.01245 c -1.40639,-0.36126 -3.128619,-1.52411 -3.894868,-2.6298 -1.436616,-2.07304 -1.484635,-2.56356 -1.484635,-15.16577 v -11.59961 h -2.248958 -2.248959 v -1.85209 -1.85208 h 2.241053 2.241055 l 0.07405,-3.37344 0.07405,-3.37343 2.844271,-0.0751 2.844271,-0.0751 v 3.44854 3.44853 h 4.101041 4.101042 v 1.85208 1.85209 h -4.101042 -4.101041 l 0.0016,10.64948 c 7.94e-4,6.41376 0.108681,11.03545 0.27101,11.6199 0.679858,2.44774 4.246944,3.80761 7.212626,2.74965 l 1.002821,-0.35774 -0.07678,1.9972 -0.07678,1.99719 -1.058334,0.38807 c -1.207219,0.44267 -6.435365,0.68074 -7.717371,0.35143 z m 19.144902,-0.0379 c -4.767656,-0.80096 -7.198063,-2.78916 -7.872552,-6.44013 -0.380987,-2.06227 -0.120248,-3.90744 0.833027,-5.89507 0.945909,-1.97227 2.122572,-3.05344 4.594085,-4.22126 2.22219,-1.05002 4.605993,-1.57786 8.275753,-1.83248 l 2.705761,-0.18774 -0.146203,-2.01688 c -0.317521,-4.38029 -1.149371,-6.31023 -3.2482,-7.53601 -1.110342,-0.64848 -3.486951,-1.2182 -5.104333,-1.22361 -2.089327,-0.007 -2.072161,-0.0324 -2.072161,3.06688 v 2.74982 h -1.984375 -1.984375 v -4.4633 -4.4633 l 2.333022,-0.2992 c 3.293398,-0.42236 8.568785,-0.37224 10.573744,0.10046 3.300923,0.77824 5.355552,2.32812 6.568722,4.95503 l 0.76514,1.65677 0.0793,11.31094 0.0793,11.31093 h 1.30975 1.30976 v 1.85209 1.85208 l -7.871353,-0.0311 c -4.329244,-0.0171 -8.443965,-0.12732 -9.143822,-0.2449 z m 8.54851,-9.15585 v -5.72771 l -2.315104,0.15101 c -5.23212,0.34127 -7.775104,2.29235 -7.808785,5.99121 -0.02537,2.78611 1.456547,4.40457 4.699931,5.13297 0.291041,0.0654 1.630494,0.13265 2.976562,0.14953 l 2.447396,0.0307 z m 20.423345,8.89609 c -6.80921,-1.78381 -10.36918,-7.18732 -10.36918,-15.73886 0,-7.24363 2.89759,-12.50278 8.47279,-15.37818 2.51559,-1.29741 5.43288,-1.79819 9.316,-1.59918 4.9222,0.25227 4.43621,-0.30696 4.43621,5.10473 v 4.59935 h -1.97512 -1.97512 l -0.0754,-2.71198 -0.0754,-2.71197 -2.53901,-0.0752 c -2.4253,-0.0719 -2.61453,-0.0361 -4.22517,0.79763 -4.19888,2.17363 -6.13394,8.11425 -4.89861,15.03869 0.99483,5.57634 4.58423,8.71287 9.97087,8.71287 h 1.82421 v 2.24896 2.24896 l -2.97656,-0.0146 c -2.04167,-0.01 -3.58399,-0.17369 -4.91051,-0.52121 z m 20.70013,0.14816 c -5.07002,-0.9208 -7.34206,-3.37024 -7.3712,-7.94675 -0.0187,-2.93003 0.60513,-4.62658 2.33762,-6.35779 2.31734,-2.31561 5.25877,-3.38908 10.67521,-3.89588 l 3.24114,-0.30327 v -2.00813 c 0,-3.71972 -1.08683,-6.30042 -3.16643,-7.51872 -1.62825,-0.95389 -5.89921,-1.58307 -6.81132,-1.00341 -0.20665,0.13133 -0.3476,1.13999 -0.39688,2.84021 l -0.0764,2.63657 -1.91823,0.0777 -1.91823,0.0777 v -4.47489 -4.47489 l 2.33302,-0.2992 c 2.99774,-0.38445 8.35557,-0.38453 10.14784,-1.5e-4 3.44115,0.73799 5.57614,2.2657 6.8867,4.92783 l 0.87307,1.77345 v 11.3165 11.3165 h 1.38906 1.38906 v 1.85209 1.85208 l -7.87135,-0.0239 c -5.16081,-0.0157 -8.51575,-0.14091 -9.74267,-0.36374 z m 9.14736,-9.04425 v -5.72771 l -2.31511,0.15472 c -3.15153,0.2106 -4.96262,0.84083 -6.3245,2.20082 -2.48348,2.48002 -1.96401,6.63877 1.02424,8.1998 1.16482,0.60849 2.56548,0.84523 5.16797,0.8735 l 2.4474,0.0266 z"
           id="path894"
           inkscape:connector-curvature="0" />
        <path
           style="fill:#364955;stroke-width:0.264583"
           d="m 72.058703,173.05653 c 0.622311,-0.0559 1.574811,-0.0551 2.116667,0.002 0.541856,0.0568 0.03269,0.10258 -1.131472,0.10162 -1.164167,-10e-4 -1.607505,-0.0475 -0.985195,-0.10337 z m 22.747173,-0.004 c 2.073672,-0.0447 5.466954,-0.0447 7.540624,0 2.07367,0.0447 0.37703,0.0813 -3.770312,0.0813 -4.147343,0 -5.843984,-0.0366 -3.770312,-0.0813 z m 26.996364,0.002 c 0.76887,-0.0536 1.95949,-0.053 2.64584,0.001 0.68634,0.0543 0.0573,0.0982 -1.39793,0.0975 -1.45521,-8e-4 -2.01677,-0.0451 -1.24791,-0.0987 z m 21.8854,0.009 c 6.6229,-0.1874 12.56829,-0.19307 12.56802,-0.012 -1.7e-4,0.10914 -3.42335,0.17333 -7.60708,0.14264 -4.18372,-0.0307 -6.41614,-0.0895 -4.96094,-0.13066 z m -54.686061,-0.25886 c 0.190995,-0.0764 0.419198,-0.067 0.507119,0.0209 0.08792,0.0879 -0.06835,0.15045 -0.347266,0.13896 -0.308226,-0.0127 -0.370919,-0.0754 -0.159853,-0.15985 z m 50.270831,0 c 0.19099,-0.0764 0.4192,-0.067 0.50712,0.0209 0.0879,0.0879 -0.0683,0.15045 -0.34727,0.13896 -0.30822,-0.0127 -0.37092,-0.0754 -0.15985,-0.15985 z m -62.441664,-0.26458 c 0.190995,-0.0764 0.419198,-0.067 0.507119,0.0209 0.08792,0.0879 -0.06835,0.15046 -0.347265,0.13897 -0.308227,-0.0127 -0.37092,-0.0754 -0.159854,-0.15985 z m 40.398564,-0.0838 c -0.34891,-0.14993 -0.39398,-0.23234 -0.13229,-0.24193 0.21828,-0.008 0.57547,0.10087 0.79375,0.24193 0.48365,0.31256 0.0659,0.31256 -0.66146,0 z m 19.05,-0.26458 c -0.34892,-0.14994 -0.39398,-0.23235 -0.13229,-0.24194 0.21828,-0.008 0.57547,0.10087 0.79375,0.24194 0.48365,0.31255 0.0659,0.31255 -0.66146,0 z m -69.731946,-1.25677 -0.911799,-0.99219 0.992187,0.9118 c 0.923507,0.84868 1.11384,1.07257 0.911799,1.07257 -0.04421,0 -0.490699,-0.44648 -0.992187,-0.99218 z m 46.547156,-0.52917 c -0.32911,-0.41965 -0.31975,-0.429 0.0999,-0.0999 0.44073,0.34565 0.58088,0.56292 0.36312,0.56292 -0.0549,0 -0.2633,-0.20836 -0.46302,-0.46302 z m -17.896902,-0.78873 2.309971,-0.0909 0.07939,-5.74482 0.07939,-5.74483 -0.0081,5.82083 -0.0081,5.82084 -2.38125,0.0149 -2.381249,0.0149 2.309971,-0.0909 z m 8.736382,0.004 c 0.40018,-0.0606 1.05503,-0.0606 1.45521,0 0.40018,0.0606 0.0728,0.11023 -0.72761,0.11023 -0.80036,0 -1.12778,-0.0496 -0.7276,-0.11023 z m 7.8376,-0.27351 c -0.3291,-0.41965 -0.31975,-0.42901 0.0999,-0.0999 0.44073,0.34564 0.58089,0.56292 0.36312,0.56292 -0.0549,0 -0.2633,-0.20836 -0.46302,-0.46302 z m 33.69685,0.2696 2.30997,-0.0909 0.0794,-5.74482 0.0794,-5.74483 -0.008,5.82083 -0.008,5.82084 -2.38125,0.0149 -2.38125,0.0149 2.30997,-0.0909 z m 8.73638,0.004 c 0.40018,-0.0606 1.05503,-0.0606 1.45521,0 0.40018,0.0606 0.0728,0.11023 -0.7276,0.11023 -0.80037,0 -1.12779,-0.0496 -0.72761,-0.11023 z m -22.03869,-0.6269 c -0.16243,-0.3035 -0.24549,-0.60166 -0.18458,-0.66257 0.0609,-0.0609 0.2466,0.18741 0.41264,0.55182 0.36462,0.80024 0.18709,0.88646 -0.22806,0.11075 z m -57.068084,0.0974 c 0.402183,-0.0608 0.997495,-0.0592 1.322917,0.004 0.325422,0.0628 -0.0036,0.11256 -0.731242,0.11058 -0.727604,-0.002 -0.993857,-0.0534 -0.591675,-0.11419 z m 14.334432,-0.4862 c -0.48427,-0.38798 -0.475827,-0.39349 0.147867,-0.0964 0.809898,0.38571 0.959998,0.50792 0.623835,0.50792 -0.141962,0 -0.489228,-0.18516 -0.771702,-0.41147 z m 32.906592,0.23073 c 0.19099,-0.0764 0.4192,-0.067 0.50712,0.0209 0.0879,0.0879 -0.0684,0.15045 -0.34727,0.13896 -0.30823,-0.0127 -0.37092,-0.0754 -0.15985,-0.15985 z m -57.608668,-1.29651 c 0.0127,-0.30823 0.07539,-0.37092 0.159851,-0.15986 0.07643,0.191 0.06703,0.4192 -0.02088,0.50712 -0.08792,0.0879 -0.150453,-0.0684 -0.138964,-0.34726 z m 16.404166,-0.79375 c 0.0127,-0.30823 0.07539,-0.37092 0.15985,-0.15986 0.07643,0.191 0.06703,0.4192 -0.02087,0.50712 -0.08792,0.0879 -0.150453,-0.0683 -0.138965,-0.34726 z M 64.56613,154.99435 c 0,-6.18463 0.03463,-8.71471 0.07696,-5.6224 0.04233,3.09232 0.04233,8.15248 0,11.2448 -0.04233,3.09231 -0.07696,0.56224 -0.07696,-5.6224 z m 51.17422,10.12031 c -0.3291,-0.41964 -0.31975,-0.429 0.0999,-0.0999 0.25466,0.19972 0.46302,0.40808 0.46302,0.46302 0,0.21776 -0.21727,0.0776 -0.56292,-0.36313 z m 15.43117,-0.46302 c 0.005,-0.43656 0.0647,-0.58312 0.13177,-0.32569 0.0671,0.25743 0.0627,0.61462 -0.01,0.79375 -0.0725,0.17913 -0.12736,-0.0315 -0.12197,-0.46806 z m -61.11875,-0.26458 c 0.0054,-0.43656 0.06469,-0.58313 0.131773,-0.3257 0.06708,0.25744 0.06267,0.61462 -0.0098,0.79375 -0.07248,0.17914 -0.127362,-0.0315 -0.12197,-0.46805 z m 11.081808,-1.60955 c 0.0127,-0.30823 0.07539,-0.37092 0.15985,-0.15985 0.07643,0.19099 0.06703,0.4192 -0.02087,0.50712 -0.08792,0.0879 -0.150453,-0.0684 -0.138965,-0.34727 z m 50.270832,0 c 0.0127,-0.30823 0.0754,-0.37092 0.15985,-0.15985 0.0764,0.19099 0.067,0.4192 -0.0209,0.50712 -0.0879,0.0879 -0.15045,-0.0684 -0.13896,-0.34727 z m -61.28479,-9.50295 c -8.5e-5,-5.23875 0.03525,-7.41938 0.07853,-4.84584 0.04328,2.57354 0.04335,6.85979 1.56e-4,9.525 -0.04319,2.66521 -0.0786,0.55959 -0.07869,-4.67916 z m 37.75776,7.80521 c 0,-0.3638 0.06,-0.51263 0.13345,-0.33073 0.0734,0.1819 0.0734,0.47956 0,0.66146 -0.0734,0.1819 -0.13345,0.0331 -0.13345,-0.33073 z m -19.885525,-0.0828 c 0,-0.0455 0.386953,-0.43249 0.859896,-0.8599 l 0.859896,-0.7771 -0.777105,0.85989 c -0.724371,0.80155 -0.942687,0.98151 -0.942687,0.77711 z m 50.270835,0 c 0,-0.0455 0.38695,-0.43249 0.85989,-0.8599 l 0.8599,-0.7771 -0.77711,0.85989 c -0.72437,0.80155 -0.94268,0.98151 -0.94268,0.77711 z m 15.19566,-6.26721 c 0,-3.56526 0.0375,-5.02378 0.0832,-3.24115 0.0458,1.78263 0.0458,4.69966 0,6.48229 -0.0458,1.78263 -0.0832,0.32412 -0.0832,-3.24114 z m -39.76014,5.02708 c 0,-0.3638 0.0601,-0.51263 0.13346,-0.33073 0.0734,0.1819 0.0734,0.47956 0,0.66146 -0.0734,0.1819 -0.13346,0.0331 -0.13346,-0.33073 z m -6.0479,-1.32292 c 0,-0.80036 0.0496,-1.12778 0.11022,-0.7276 0.0606,0.40018 0.0606,1.05503 0,1.45521 -0.0606,0.40018 -0.11022,0.0728 -0.11022,-0.72761 z m -4.49252,-0.79375 c 0,-0.94588 0.048,-1.33283 0.10671,-0.85989 0.0587,0.47294 0.0587,1.24685 0,1.71979 -0.0587,0.47294 -0.10671,0.086 -0.10671,-0.8599 z m 38.67677,0.91649 c 0.43656,-0.1999 1.09141,-0.36079 1.45521,-0.35753 0.40062,0.004 0.13978,0.15078 -0.66146,0.37327 -1.6364,0.45438 -1.81282,0.45089 -0.79375,-0.0157 z m -49.873955,-0.11905 c 0.218281,-0.14309 0.684609,-0.26199 1.036286,-0.26422 0.849212,-0.005 0.633973,0.14506 -0.507119,0.35445 -0.651516,0.11955 -0.808387,0.0928 -0.529167,-0.0902 z m 2.844271,-0.45499 c 0.327422,-0.0631 0.863203,-0.0631 1.190625,0 0.327422,0.0631 0.05953,0.11466 -0.595313,0.11466 -0.654843,0 -0.922734,-0.0516 -0.595312,-0.11466 z m 18.675934,-1.66536 c 0,-1.09141 0.0467,-1.53789 0.10379,-0.99219 0.0571,0.5457 0.0571,1.43867 0,1.98437 -0.0571,0.54571 -0.10379,0.0992 -0.10379,-0.99218 z m 31.33031,1.66536 c 0.32743,-0.0631 0.86321,-0.0631 1.19063,0 0.32742,0.0631 0.0595,0.11466 -0.59531,0.11466 -0.65485,0 -0.92274,-0.0516 -0.59532,-0.11466 z m -7.20989,-1.92995 c 0.72736,-0.31255 1.14511,-0.31255 0.66146,0 -0.21829,0.14107 -0.57547,0.24994 -0.79375,0.24194 -0.26169,-0.01 -0.21663,-0.092 0.13229,-0.24194 z M 88.125147,155.7881 c 0.727363,-0.31256 1.145109,-0.31256 0.661458,0 -0.218281,0.14107 -0.575468,0.24994 -0.79375,0.24194 -0.261689,-0.01 -0.216625,-0.092 0.132292,-0.24194 z m 15.053353,-3.57187 c 5.3e-4,-2.0373 0.0419,-2.83576 0.0923,-1.77437 0.0503,1.0614 0.05,2.72827 -7.9e-4,3.70417 -0.0507,0.9759 -0.0919,0.10749 -0.0915,-1.9298 z m 4.4549,2.77812 c 0,-0.50932 0.0545,-0.71768 0.12101,-0.46302 0.0665,0.25466 0.0665,0.67138 0,0.92604 -0.0665,0.25466 -0.12101,0.0463 -0.12101,-0.46302 z m 31.55633,0.52917 c 0.72736,-0.31256 1.14511,-0.31256 0.66146,0 -0.21829,0.14106 -0.57547,0.24993 -0.79375,0.24193 -0.26169,-0.01 -0.21663,-0.092 0.13229,-0.24193 z m -49.658984,-0.18074 c 0.190995,-0.0764 0.419198,-0.067 0.507119,0.0209 0.08792,0.0879 -0.06835,0.15046 -0.347266,0.13897 -0.308226,-0.0127 -0.370919,-0.0754 -0.159853,-0.15985 z m 1.322916,-0.26459 c 0.190995,-0.0764 0.419198,-0.067 0.507119,0.0209 0.08792,0.0879 -0.06835,0.15045 -0.347265,0.13896 -0.308227,-0.0127 -0.37092,-0.0754 -0.159854,-0.15985 z m 50.270828,0 c 0.191,-0.0764 0.4192,-0.067 0.50712,0.0209 0.0879,0.0879 -0.0683,0.15045 -0.34726,0.13896 -0.30823,-0.0127 -0.37092,-0.0754 -0.15986,-0.15985 z M 92.561953,154.811 c 0.257431,-0.0671 0.614619,-0.0627 0.79375,0.01 0.17913,0.0725 -0.03149,0.12737 -0.468056,0.12197 -0.436563,-0.005 -0.583126,-0.0647 -0.325694,-0.13177 z m 50.270827,0 c 0.25744,-0.0671 0.61462,-0.0627 0.79375,0.01 0.17913,0.0725 -0.0315,0.12737 -0.46805,0.12197 -0.43656,-0.005 -0.58313,-0.0647 -0.3257,-0.13177 z m -29.13357,-1.93332 c 0,-0.3638 0.0601,-0.51263 0.13346,-0.33073 0.0734,0.18191 0.0734,0.47956 0,0.66146 -0.0734,0.1819 -0.13346,0.0331 -0.13346,-0.33073 z m -16.379216,-1.98437 c 0.0029,-0.58208 0.05712,-0.78905 0.120407,-0.45994 0.06329,0.32912 0.06088,0.80537 -0.0053,1.05834 -0.06622,0.25296 -0.118004,-0.0163 -0.115067,-0.5984 z m 50.265496,0.13229 c 0,-0.50932 0.0545,-0.71768 0.121,-0.46302 0.0666,0.25466 0.0666,0.67138 0,0.92604 -0.0666,0.25466 -0.121,0.0463 -0.121,-0.46302 z m -50.575913,-2.00642 c 0.0127,-0.30823 0.07539,-0.37092 0.159851,-0.15986 0.07643,0.191 0.06703,0.4192 -0.02088,0.50712 -0.08792,0.0879 -0.150453,-0.0684 -0.138964,-0.34726 z m 17.706193,0.24901 c 0,-0.14197 0.18516,-0.48923 0.41147,-0.77171 0.38798,-0.48427 0.39349,-0.47582 0.0965,0.14787 -0.38571,0.8099 -0.50792,0.96 -0.50792,0.62384 z m 11.20913,-2.34363 c 8e-4,-1.45521 0.0451,-2.01677 0.0987,-1.2479 0.0536,0.76886 0.053,1.95949 -0.001,2.64583 -0.0543,0.68635 -0.0982,0.0573 -0.0975,-1.39793 z m 21.35551,2.09462 c 0.0127,-0.30823 0.0754,-0.37092 0.15985,-0.15986 0.0764,0.191 0.067,0.4192 -0.0209,0.50712 -0.0879,0.0879 -0.15045,-0.0684 -0.13896,-0.34726 z m -64.206929,-4.079 c 0,-2.40109 0.04011,-3.38336 0.08914,-2.18281 0.04902,1.20055 0.04902,3.16508 0,4.36563 -0.04903,1.20054 -0.08914,0.21828 -0.08914,-2.18282 z m 50.270829,0 c 0,-2.40109 0.0401,-3.38336 0.0891,-2.18281 0.049,1.20055 0.049,3.16508 0,4.36563 -0.049,1.20054 -0.0891,0.21828 -0.0891,-2.18282 z m -37.00007,2.19423 c -0.143584,-0.37709 -0.113194,-0.40748 0.148114,-0.14812 0.180821,0.17948 0.262114,0.39297 0.180652,0.47444 -0.08146,0.0815 -0.229407,-0.0654 -0.328766,-0.32632 z m 6.48617,0.0327 c 0.0127,-0.30822 0.0754,-0.37091 0.15985,-0.15985 0.0764,0.191 0.067,0.4192 -0.0209,0.50712 -0.0879,0.0879 -0.15046,-0.0684 -0.13897,-0.34727 z m 50.27083,0 c 0.0127,-0.30822 0.0754,-0.37091 0.15985,-0.15985 0.0764,0.191 0.067,0.4192 -0.0209,0.50712 -0.0879,0.0879 -0.15046,-0.0684 -0.13897,-0.34727 z M 116.7007,146.3065 c 0.43626,-0.48547 1.03132,-1.00606 1.32236,-1.15687 0.29104,-0.15081 0.41011,-0.17 0.26459,-0.0426 -0.14553,0.12736 -0.74059,0.64795 -1.32237,1.15686 l -1.05778,0.92531 z m 29.20215,-0.24182 c -0.32911,-0.41964 -0.31975,-0.429 0.0999,-0.0999 0.25466,0.19972 0.46302,0.40808 0.46302,0.46302 0,0.21776 -0.21727,0.0776 -0.56292,-0.36313 z m -33.70062,-1.65364 c 0.71666,-0.72761 1.36256,-1.32292 1.43532,-1.32292 0.0728,0 -0.45407,0.59531 -1.17074,1.32292 -0.71666,0.7276 -1.36255,1.32291 -1.43531,1.32291 -0.0728,0 0.45407,-0.59531 1.17073,-1.32291 z m 32.64229,0.59531 c -0.32911,-0.41965 -0.31975,-0.429 0.0999,-0.0999 0.44073,0.34565 0.58089,0.56292 0.36313,0.56292 -0.0549,0 -0.2633,-0.20836 -0.46302,-0.46302 z m -25.42751,-0.63988 c 0.15375,-0.15375 0.43572,-0.22749 0.6266,-0.16386 0.19816,0.0661 0.0782,0.18599 -0.27955,0.27954 -0.44009,0.11509 -0.54339,0.0807 -0.34705,-0.11568 z m 24.27063,0.0446 c -0.43138,-0.18537 -0.44648,-0.23083 -0.0818,-0.24599 0.24608,-0.0102 0.52099,0.10047 0.61093,0.24599 0.18803,0.30424 0.17884,0.30424 -0.52917,0 z m -22.68802,-0.43981 c 0.18191,-0.0734 0.47956,-0.0734 0.66146,0 0.1819,0.0734 0.0331,0.13345 -0.33073,0.13345 -0.3638,0 -0.51263,-0.0601 -0.33073,-0.13345 z m 3.31233,-0.008 c 0.25743,-0.0671 0.61462,-0.0627 0.79375,0.01 0.17913,0.0725 -0.0315,0.12736 -0.46805,0.12197 -0.43657,-0.005 -0.58313,-0.0647 -0.3257,-0.13177 z m 17.07713,-0.26197 c 0.19099,-0.0764 0.4192,-0.067 0.50712,0.0209 0.0879,0.0879 -0.0684,0.15045 -0.34727,0.13896 -0.30823,-0.0127 -0.37092,-0.0754 -0.15985,-0.15985 z m -81.391077,-1.86978 0.05098,-1.78594 0.09367,1.64315 0.09366,1.64314 2.170461,0.0889 2.170459,0.0889 -2.315104,0.0539 -2.315104,0.0539 z m 18.29209,0.0661 c 0.0011,-1.01865 0.049,-1.40295 0.106272,-0.854 0.05727,0.54895 0.05631,1.38239 -0.0021,1.85208 -0.05845,0.4697 -0.105312,0.0206 -0.104138,-0.99808 z m 10.033491,1.53028 c 0.400183,-0.0606 1.055026,-0.0606 1.455209,0 0.400182,0.0606 0.07276,0.11022 -0.727604,0.11022 -0.800365,0 -1.127787,-0.0496 -0.727605,-0.11022 z m 50.270836,0 c 0.40018,-0.0606 1.05502,-0.0606 1.4552,0 0.40019,0.0606 0.0728,0.11022 -0.7276,0.11022 -0.80037,0 -1.12779,-0.0496 -0.7276,-0.11022 z m -37.93532,-0.5381 c -0.3291,-0.41964 -0.31974,-0.429 0.0999,-0.0999 0.44073,0.34564 0.58089,0.56291 0.36313,0.56291 -0.055,0 -0.2633,-0.20836 -0.46303,-0.46302 z m -16.949187,-2.36355 c 0.190995,-0.0764 0.419198,-0.067 0.507119,0.0209 0.08792,0.0879 -0.06835,0.15045 -0.347266,0.13896 -0.308226,-0.0127 -0.370919,-0.0754 -0.159853,-0.15985 z m 1.852083,-0.26458 c 0.190995,-0.0764 0.419198,-0.067 0.507119,0.0209 0.08792,0.0879 -0.06835,0.15046 -0.347266,0.13897 -0.308226,-0.0127 -0.370919,-0.0754 -0.159853,-0.15985 z m 9.525,0 c 0.190994,-0.0764 0.4192,-0.067 0.507118,0.0209 0.08792,0.0879 -0.06835,0.15046 -0.347265,0.13897 -0.308226,-0.0127 -0.37092,-0.0754 -0.159853,-0.15985 z m 40.745834,0 c 0.19099,-0.0764 0.4192,-0.067 0.50712,0.0209 0.0879,0.0879 -0.0684,0.15046 -0.34727,0.13897 -0.30823,-0.0127 -0.37092,-0.0754 -0.15985,-0.15985 z m -47.641537,-0.27057 c 0.327422,-0.0631 0.863203,-0.0631 1.190625,0 0.327422,0.0631 0.05953,0.11466 -0.595313,0.11466 -0.654843,0 -0.922734,-0.0516 -0.595312,-0.11466 z m 4.635243,0.003 c 0.257432,-0.0671 0.614619,-0.0627 0.79375,0.01 0.179131,0.0725 -0.03149,0.12736 -0.468056,0.12197 -0.436562,-0.005 -0.583126,-0.0647 -0.325694,-0.13178 z m 30.032164,-0.0107 c 0.62231,-0.0559 1.57481,-0.0551 2.11667,0.002 0.54185,0.0568 0.0327,0.10258 -1.13147,0.10162 -1.16417,-0.001 -1.60751,-0.0475 -0.9852,-0.10337 z m 15.60342,0.007 c 0.32743,-0.0631 0.86321,-0.0631 1.19063,0 0.32742,0.0631 0.0595,0.11466 -0.59531,0.11466 -0.65485,0 -0.92274,-0.0516 -0.59532,-0.11466 z m 3.1691,-0.004 c 0.4697,-0.0584 1.30314,-0.0594 1.85209,-0.002 0.54894,0.0573 0.16465,0.1051 -0.854,0.10627 -1.01864,10e-4 -1.46779,-0.0457 -0.99809,-0.10414 z m -77.097325,-3.51321 c 0,-1.09141 0.0467,-1.53789 0.103786,-0.99219 0.05708,0.5457 0.05708,1.43867 0,1.98437 -0.05708,0.54571 -0.103786,0.0992 -0.103786,-0.99218 z m 4.673545,-3.175 -0.926042,-0.19493 0.992187,-0.0348 c 0.545703,-0.0191 0.992188,0.0842 0.992188,0.22976 0,0.14552 -0.02977,0.24891 -0.06615,0.22975 -0.03638,-0.0191 -0.482865,-0.12255 -0.992187,-0.22975 z"
           id="path892"
           inkscape:connector-curvature="0" />
      </g>
    </g>
  </g>
  <style
     id="style4652"
     type="text/css">
#p0,#p2,#p4,#p9,#p10,#p12,#p13,#p16{stroke:#000}
#p2,#p6,#p10,#p13{stroke-opacity:.19607843}
#p4,#p12{stroke-opacity:.39215687}
#p0,#p9{stroke-width:1}
</style>
</svg>
