<?xml version="1.0" encoding="UTF-8" standalone="no"?>
<svg
   xmlns:dc="http://purl.org/dc/elements/1.1/"
   xmlns:cc="http://creativecommons.org/ns#"
   xmlns:rdf="http://www.w3.org/1999/02/22-rdf-syntax-ns#"
   xmlns:svg="http://www.w3.org/2000/svg"
   xmlns="http://www.w3.org/2000/svg"
   xmlns:xlink="http://www.w3.org/1999/xlink"
   xmlns:sodipodi="http://sodipodi.sourceforge.net/DTD/sodipodi-0.dtd"
   xmlns:inkscape="http://www.inkscape.org/namespaces/inkscape"
   width="64"
   height="64"
   viewBox="0 0 16.933333 16.933334"
   version="1.1"
   id="svg1882"
   inkscape:version="1.0 (1.0+r73)"
   sodipodi:docname="itaca.svg">
  <defs
     id="defs1876">
    <linearGradient
       id="G0"
       gradientUnits="userSpaceOnUse"
       gradientTransform="matrix(0.93939733,0,0,1.2111787,0,298.66667)"
       x1="296.1369"
       y1="768.0376"
       x2="230.01286"
       y2="833.85461">
      <stop
         style="stop-color:#4dad2c"
         id="stop4611" />
      <stop
         offset="1"
         style="stop-color:#e3ff86"
         id="stop4613" />
    </linearGradient>
    <linearGradient
       id="G1"
       gradientUnits="userSpaceOnUse"
       gradientTransform="matrix(0.448461,0,0,2.229848,0,280)"
       x1="433.22763"
       y1="408.78055"
       x2="504.90137"
       y2="408.78055">
      <stop
         style="stop-color:#fff"
         id="stop4616" />
      <stop
         offset="1"
         style="stop-color:#fff;stop-opacity:0"
         id="stop4618" />
    </linearGradient>
    <linearGradient
       id="G2"
       gradientUnits="userSpaceOnUse"
       gradientTransform="matrix(1.958518,0,0,0.51059,0,280)"
       x1="121.73791"
       y1="1726.7207"
       x2="116.15244"
       y2="1719.0306">
      <stop
         style="stop-color:#d9d9b4"
         id="stop4621" />
      <stop
         offset="1"
         style="stop-color:#a3a36b"
         id="stop4623" />
    </linearGradient>
    <linearGradient
       id="G4"
       xlink:href="#G3"
       gradientTransform="matrix(0.747426,0,0,1.337925,0.25,132)"
       x1="277.49091"
       y1="794.37476"
       x2="286.71185"
       y2="776.55743">
      <stop
         style="stop-color:#ff0b00"
         id="stop4627" />
      <stop
         offset="1"
         style="stop-color:#810500"
         id="stop4629" />
    </linearGradient>
    <linearGradient
       id="G3"
       xlink:href="#G1"
       gradientTransform="matrix(0.991342,0,0,1.008734,0,140)"
       x1="241.40817"
       y1="998.6955"
       x2="243.66159"
       y2="1051.3652" />
    <linearGradient
       id="G5"
       xlink:href="#G1"
       gradientTransform="matrix(0.88966187,0,0,1.2788885,0,140.8)"
       x1="250.28658"
       y1="868.11609"
       x2="252.10155"
       y2="885.64746" />
    <linearGradient
       id="G6"
       xlink:href="#G1"
       gradientTransform="matrix(1.937868,0,0,0.516031,0,140)"
       x1="126.13629"
       y1="1985.5347"
       x2="115.16805"
       y2="1976.4353" />
    <linearGradient
       id="G9"
       spreadMethod="reflect"
       gradientUnits="userSpaceOnUse"
       gradientTransform="matrix(1.2543595,0,0,0.9070592,0,298.66667)"
       x1="205.99301"
       y1="1137.6046"
       x2="211.85287"
       y2="1082.9424">
      <stop
         style="stop-color:#b6e8ff"
         id="stop4639" />
      <stop
         offset="1"
         style="stop-color:#2389db"
         id="stop4641" />
    </linearGradient>
    <linearGradient
       id="G11"
       xlink:href="#G1"
       gradientTransform="matrix(1.7227083,0,0,0.66045867,0,149.33333)"
       x1="143.15617"
       y1="1700.754"
       x2="164.79172"
       y2="1776.3087" />
    <linearGradient
       id="G12"
       xlink:href="#G4"
       gradientTransform="matrix(1.4530443,0,0,0.7830304,0,149.33333)"
       x1="191.07132"
       y1="1478.1887"
       x2="191.07132"
       y2="1444.9415" />
    <linearGradient
       id="G13"
       xlink:href="#G2"
       gradientTransform="matrix(1.514725,0,0,0.660186,0,140)"
       x1="140.25737"
       y1="1696.1609"
       x2="157.33363"
       y2="1634.5474" />
    <linearGradient
       id="G15"
       xlink:href="#G1"
       gradientTransform="matrix(1.6157067,0,0,0.7041984,0,149.33333)"
       x1="140.18318"
       y1="1674.4733"
       x2="147.68718"
       y2="1669.3435" />
    <linearGradient
       id="G16"
       xlink:href="#G4"
       gradientTransform="matrix(0.9677664,0,0,1.1756747,0,149.33333)"
       x1="222.24202"
       y1="1010.1295"
       x2="227.17216"
       y2="985.21222" />
    <linearGradient
       id="G17"
       xlink:href="#G1"
       gradientTransform="matrix(1.0294891,0,0,1.1051872,0,149.33333)"
       x1="211.96373"
       y1="1048.0908"
       x2="212.00743"
       y2="1068.4087" />
    <linearGradient
       id="G18"
       xlink:href="#G1"
       gradientTransform="matrix(1.4530443,0,0,0.7830304,0,149.33333)"
       x1="196.64761"
       y1="1437.2679"
       x2="182.96735"
       y2="1493.8745" />
    <linearGradient
       gradientTransform="scale(1.0666667)"
       y2="12.8745"
       x2="30.2495"
       y1="49"
       x1="30.2495"
       gradientUnits="userSpaceOnUse"
       id="SVGID_1_">
      <stop
         id="stop5847"
         style="stop-color:#000000"
         offset="0" />
      <stop
         id="stop5849"
         style="stop-color:#3B3B3B"
         offset="1" />
    </linearGradient>
    <linearGradient
       gradientTransform="scale(1.0666667)"
       y2="12.583"
       x2="59.722198"
       y1="20.466801"
       x1="59.722198"
       gradientUnits="userSpaceOnUse"
       id="SVGID_2_">
      <stop
         id="stop5854"
         style="stop-color:#000000"
         offset="0" />
      <stop
         id="stop5856"
         style="stop-color:#3B3B3B"
         offset="1" />
    </linearGradient>
  </defs>
  <sodipodi:namedview
     id="base"
     pagecolor="#ffffff"
     bordercolor="#666666"
     borderopacity="1.0"
     inkscape:pageopacity="0.0"
     inkscape:pageshadow="2"
     inkscape:zoom="1.4"
     inkscape:cx="-62.24768"
     inkscape:cy="7.2428883"
     inkscape:document-units="mm"
     inkscape:current-layer="g9462"
     inkscape:document-rotation="0"
     showgrid="false"
     units="px"
     inkscape:window-width="1920"
     inkscape:window-height="901"
     inkscape:window-x="0"
     inkscape:window-y="32"
     inkscape:window-maximized="1" />
  <metadata
     id="metadata1879">
    <rdf:RDF>
      <cc:Work
         rdf:about="">
        <dc:format>image/svg+xml</dc:format>
        <dc:type
           rdf:resource="http://purl.org/dc/dcmitype/StillImage" />
        <dc:title />
      </cc:Work>
    </rdf:RDF>
  </metadata>
  <g
     inkscape:label="Capa 1"
     inkscape:groupmode="layer"
     id="layer1">
    <g
       transform="matrix(0.26458333,0,0,0.26458333,-28.657214,-257.51893)"
       id="g9462">
      <g
         id="g890"
         transform="matrix(1.432379,0,0,1.432379,69.752467,836.25695)">
        <path
           style="fill:#a6dbe8;stroke-width:0.264583"
           d="m 48.717997,137.86249 c -0.693123,-1.67581 -2.98443,-3.45976 -6.834559,-5.3212 -2.439907,-1.17963 -3.671492,-1.96491 -5.009192,-3.19396 -4.008295,-3.68273 -6.093136,-8.40223 -6.085186,-13.77519 0.0047,-3.1844 0.570711,-5.61961 1.968012,-8.46738 1.568152,-3.19598 4.943979,-6.5718 8.139952,-8.139955 2.870413,-1.40841 5.281037,-1.9624 8.518788,-1.957717 8.37455,0.01211 15.63282,5.627642 17.839362,13.801832 0.63522,2.3532 0.632572,7.18856 -0.0052,9.525 -1.006393,3.68676 -3.404457,7.32079 -6.434928,9.7515 -1.492303,1.19695 -2.405991,1.70846 -6.159669,3.44831 -1.867532,0.86561 -4.154624,2.87681 -4.843524,4.25925 l -0.613435,1.23101 -0.480401,-1.1615 z m 1.685258,-5.9507 c 0.404628,-0.49527 1.87471,-1.37734 3.968749,-2.38132 2.946559,-1.41272 3.553687,-1.82458 5.321035,-3.60967 3.180472,-3.2124 4.719156,-7.17037 4.388334,-11.28815 -0.63242,-7.87174 -6.948426,-13.87789 -14.59385,-13.87789 -4.343448,0 -7.542609,1.31727 -10.582916,4.35758 -3.042069,3.04207 -4.360339,6.20527 -4.354442,10.44853 0.0059,4.21062 1.371718,7.50097 4.341408,10.45838 1.389289,1.38355 2.419932,2.12749 3.989826,2.87995 1.164167,0.55799 2.63218,1.26617 3.262251,1.57373 1.169467,0.57086 2.942959,2.29748 2.971017,2.89249 0.0086,0.18148 0.157385,0.10565 0.330729,-0.1685 0.173343,-0.27416 0.60438,-0.85247 0.957859,-1.28513 z m -5.934356,-3.62219 c -1.180214,-0.2838 -1.821308,-0.68864 -2.730705,-1.72438 -1.580964,-1.80062 -1.6847,-4.29435 -0.260429,-6.2605 2.32479,-3.20928 7.246917,-2.56667 8.799339,1.1488 0.585472,1.40123 0.508374,2.54685 -0.277534,4.12396 -1.026058,2.05903 -3.401785,3.22403 -5.530671,2.71212 z m 7.834331,-0.65199 c -0.792359,-0.43917 -1.330473,-1.3887 -1.342664,-2.36921 -0.01343,-1.07985 1.507975,-2.55323 2.636458,-2.55323 1.071872,0 2.645833,1.47212 2.645833,2.47464 0,2.12804 -2.129428,3.45112 -3.939627,2.4478 z m 5.182875,-3.80596 c -0.599602,-0.66255 -0.567926,-1.52722 0.07967,-2.17481 1.322311,-1.32231 3.392049,0.10902 2.589824,1.79099 -0.443391,0.92963 -1.976107,1.15001 -2.669492,0.38382 z m -5.480709,-2.39282 c -1.267471,-0.66349 -2.196762,-2.46743 -1.985976,-3.85518 0.410751,-2.70424 3.082992,-4.09689 5.583968,-2.9101 1.977718,0.93849 2.663891,3.99233 1.26941,5.64958 -1.357535,1.61334 -3.137389,2.02131 -4.867402,1.1157 z m -14.87869,-0.86152 c -0.254664,-0.14833 -0.641618,-0.61504 -0.859896,-1.03715 -1.419369,-2.74475 1.828483,-5.2826 4.129433,-3.2267 1.805064,1.61283 0.681554,4.55965 -1.731532,4.54158 -0.591238,-0.004 -1.28334,-0.1294 -1.538005,-0.27773 z m 21.960416,-0.79375 c -0.692896,-0.40357 -1.311523,-1.76703 -1.10681,-2.43942 0.851596,-2.79713 4.612545,-2.2703 4.612545,0.64611 0,0.29276 -0.348028,0.88032 -0.773399,1.30569 -0.807503,0.80751 -1.860491,0.99543 -2.732336,0.48762 z m -14.618223,-2.53465 c -2.379953,-0.55979 -4.328667,-2.03308 -5.193502,-3.92644 -0.680495,-1.48979 -0.653161,-4.03501 0.05962,-5.55138 0.630729,-1.34182 2.254975,-2.92192 3.567106,-3.47017 1.27412,-0.53236 3.987237,-0.46427 5.270945,0.13227 1.339477,0.62247 2.888532,2.23126 3.453122,3.58629 0.972872,2.33491 0.336264,5.44164 -1.4891,7.26701 -1.397796,1.39779 -4.096445,2.33211 -5.668189,1.96242 z m -8.281458,-2.52415 c -0.174625,-0.17463 -0.3175,-0.64669 -0.3175,-1.04903 0,-1.32432 1.756192,-1.65349 2.400335,-0.44989 0.608351,1.13671 -1.167234,2.41452 -2.082835,1.49892 z M 60.79369,114.1956 c -0.481282,-0.48128 -0.380645,-1.39542 0.212741,-1.93243 1.026771,-0.92921 2.528543,0.45478 1.856359,1.71077 -0.324456,0.60625 -1.552911,0.73785 -2.0691,0.22166 z m -6.718591,-1.22741 c -0.969777,-0.9046 -1.100553,-1.17241 -1.195109,-2.4474 -0.08259,-1.1137 0.01407,-1.62315 0.435303,-2.29396 1.472607,-2.34516 4.409662,-2.55939 6.367147,-0.46443 0.557583,0.59674 0.661458,0.96426 0.661458,2.34025 0,2.5581 -1.302763,3.88128 -3.821379,3.88128 -1.209921,0 -1.477574,-0.11108 -2.44742,-1.01574 z m -3.123909,-6.92176 c -0.327579,-0.32758 -0.529166,-0.88194 -0.529166,-1.4552 0,-1.89591 2.269693,-2.7501 3.420379,-1.28724 0.727438,0.92479 0.692608,1.82851 -0.101062,2.62218 -0.801757,0.80176 -2.054654,0.85576 -2.790151,0.12026 z"
           id="path904"
           inkscape:connector-curvature="0"
           sodipodi:nodetypes="ccscscscccscccccssssscccccccccssscccsscccccccsssccccccccscccsccccccccsccccccccccsscssccs" />
        <path
           style="fill:#9fa5aa;stroke-width:0.264583"
           d="m 43.226329,127.74628 c -1.660473,-0.90208 -2.434017,-2.18357 -2.540201,-4.20821 -0.0822,-1.56727 -0.01099,-1.87468 0.685358,-2.95868 0.990217,-1.54147 2.331577,-2.2308 4.320513,-2.22032 4.695606,0.0247 6.554117,5.96607 2.801956,8.95735 -1.322307,1.05417 -3.753295,1.25254 -5.267626,0.42986 z m 9.444653,0.0204 c -1.686116,-0.72202 -2.131971,-2.90756 -0.853883,-4.18565 1.606654,-1.60665 4.281441,-0.49466 4.281441,1.77993 0,1.7423 -1.88582,3.06591 -3.427558,2.40572 z m -15.798666,-7.67031 c -2.256548,-2.01623 0.23088,-5.5427 2.92639,-4.1488 1.604988,0.82997 1.891122,2.84045 0.589504,4.14207 -1.053747,1.05375 -2.341316,1.05621 -3.515894,0.007 z m 22.413249,-0.34665 c -1.356667,-0.77805 -1.614014,-2.45609 -0.541192,-3.52891 1.184201,-1.18421 3.078512,-0.6691 3.665601,0.99676 0.262133,0.74379 -0.348681,2.04562 -1.155581,2.46288 -0.893207,0.4619 -1.26161,0.47486 -1.968828,0.0693 z M 42.749107,116.6083 c -6.238196,-2.82381 -4.700662,-11.98996 2.114867,-12.60797 2.826525,-0.25631 5.321749,1.1834 6.523432,3.76391 2.038469,4.37744 -1.158345,9.38301 -5.992465,9.38301 -0.89796,0 -1.91114,-0.20638 -2.645834,-0.53895 z m 11.879231,-3.22501 c -1.223854,-0.81759 -1.882799,-2.15725 -1.74243,-3.54244 0.386308,-3.81219 5.394357,-4.79205 7.126851,-1.39442 1.276136,2.50266 -0.572444,5.53744 -3.373027,5.53744 -0.716037,0 -1.43269,-0.21398 -2.011394,-0.60058 z m -3.509174,-7.35612 c -1.911036,-1.50322 0.394074,-4.42681 2.388756,-3.02968 0.769641,0.53908 0.977191,1.56982 0.501377,2.48994 -0.633912,1.22585 -1.75235,1.43472 -2.890133,0.53974 z"
           id="path902"
           inkscape:connector-curvature="0"
           sodipodi:nodetypes="ccccccccsccssccccccccscsssssssssccs" />
        <path
           style="fill:#56b6df;stroke-width:0.264583"
           d="m 43.226329,127.74631 c -1.660473,-0.90208 -2.434017,-2.18357 -2.540201,-4.20821 -0.0822,-1.56727 -0.01099,-1.87468 0.685358,-2.95868 0.990217,-1.54147 2.331577,-2.2308 4.320513,-2.22032 4.695606,0.0247 6.554117,5.96607 2.801956,8.95735 -1.322307,1.05417 -3.753295,1.25254 -5.267626,0.42986 z m 9.444653,0.0204 c -1.686116,-0.72202 -2.131971,-2.90756 -0.853883,-4.18565 1.606654,-1.60665 4.281441,-0.49466 4.281441,1.77993 0,1.7423 -1.88582,3.06591 -3.427558,2.40572 z M 36.872316,120.0964 c -2.256548,-2.01623 0.23088,-5.5427 2.92639,-4.1488 1.604988,0.82997 1.891122,2.84045 0.589504,4.14207 -1.053747,1.05375 -2.341316,1.05621 -3.515894,0.007 z m 22.413249,-0.34665 c -1.356667,-0.77805 -1.614014,-2.45609 -0.541192,-3.52891 1.184201,-1.18421 3.078512,-0.6691 3.665601,0.99676 0.262133,0.74379 -0.348681,2.04562 -1.155581,2.46288 -0.893207,0.4619 -1.26161,0.47486 -1.968828,0.0693 z m -16.536458,-3.14142 c -6.238196,-2.82381 -4.700662,-11.98996 2.114867,-12.60797 2.826525,-0.25631 5.321749,1.1834 6.523432,3.76391 2.038469,4.37744 -1.158345,9.38301 -5.992465,9.38301 -0.89796,0 -1.91114,-0.20638 -2.645834,-0.53895 z m 11.879231,-3.22501 c -1.223854,-0.81759 -1.882799,-2.15725 -1.74243,-3.54244 0.386308,-3.81219 5.394357,-4.79205 7.126851,-1.39442 1.276136,2.50266 -0.572444,5.53744 -3.373027,5.53744 -0.716037,0 -1.43269,-0.21398 -2.011394,-0.60058 z m -3.509174,-7.35612 c -1.911036,-1.50322 0.394074,-4.42681 2.388756,-3.02968 0.769641,0.53908 0.977191,1.56982 0.501377,2.48994 -0.633912,1.22585 -1.75235,1.43472 -2.890133,0.53974 z"
           id="path900"
           inkscape:connector-curvature="0"
           sodipodi:nodetypes="ccccccccsccssccccccccscsssssssssccs" />
        <path
           style="fill:#00a4db;stroke-width:0.264583"
           d="m 43.322796,127.70368 c -2.760359,-1.36634 -3.575628,-5.248 -1.579696,-7.52124 1.125563,-1.28195 2.124422,-1.73842 3.804035,-1.73842 2.749611,0 4.622416,1.75354 4.822168,4.51509 0.169169,2.33873 -0.8424,4.03515 -2.925027,4.90533 -1.349138,0.5637 -2.769829,0.50829 -4.12148,-0.16076 z m 8.542409,-0.61088 c -0.90249,-0.90248 -0.90249,-2.56114 0,-3.46363 0.90249,-0.90249 2.561147,-0.90249 3.463636,0 0.902491,0.90249 0.902491,2.56115 0,3.46363 -0.477854,0.47786 -0.935395,0.64944 -1.731817,0.64944 -0.796423,0 -1.253964,-0.17158 -1.731819,-0.64944 z m -14.313308,-6.49208 c -1.306782,-0.52736 -1.870159,-2.67763 -1.019677,-3.89186 1.040111,-1.48497 3.666622,-1.23552 4.349497,0.41309 0.93683,2.26171 -1.092379,4.38168 -3.32982,3.47877 z M 58.64331,119.1076 c -1.679371,-2.13498 1.122638,-4.79966 3.03553,-2.88676 1.39749,1.39748 0.463339,3.5839 -1.531228,3.5839 -0.717571,0 -1.092668,-0.17383 -1.504302,-0.69714 z m -15.60699,-2.38686 c -1.744491,-0.64029 -3.342843,-2.37707 -3.876269,-4.21199 -1.420149,-4.88514 2.777386,-9.43697 7.688853,-8.33784 5.777657,1.29299 6.972558,9.07587 1.853953,12.07557 -1.536748,0.9006 -3.953791,1.10289 -5.666537,0.47426 z m 12.545079,-2.93071 c -1.030015,-0.2579 -1.94885,-1.15062 -2.399917,-2.33172 -1.680128,-4.39936 4.910243,-7.15419 6.814794,-2.84865 1.336849,3.02218 -1.190464,5.9877 -4.414877,5.18037 z m -4.037046,-7.48808 c -1.313247,-0.52771 -1.429223,-2.51473 -0.194014,-3.32407 1.933556,-1.26692 3.899547,1.61705 2.078711,3.04932 -0.76269,0.59993 -0.99219,0.63339 -1.884697,0.27475 z"
           id="path898"
           inkscape:connector-curvature="0"
           sodipodi:nodetypes="scsscscsccscccscscsscsccccccccccc" />
        <path
           style="fill:#037cae;stroke-width:0.264583"
           d="m 58.64331,119.1076 c -1.679371,-2.13498 1.122638,-4.79966 3.03553,-2.88676 1.39749,1.39748 0.463339,3.5839 -1.531228,3.5839 -0.717571,0 -1.092668,-0.17383 -1.504302,-0.69714 z m -15.60699,-2.38686 c -1.744491,-0.64029 -3.342843,-2.37707 -3.876269,-4.21199 -1.420149,-4.88514 2.777386,-9.43697 7.688853,-8.33784 5.777657,1.29299 6.972558,9.07587 1.853953,12.07557 -1.536748,0.9006 -3.953791,1.10289 -5.666537,0.47426 z"
           id="path896"
           inkscape:connector-curvature="0"
           sodipodi:nodetypes="scsscsccc" />
      </g>
    </g>
  </g>
</svg>
